#N canvas 409 25 983 731 10;
#X obj 54 85 t f f;
#X obj 54 58 inlet;
#X obj -1 57 inlet;
#X obj 45 206 outlet;
#X obj 1 94 spigot;
#X obj 45 184 spigot;
#X obj 22 -189 ctlin;
#X obj 20 -74 route 114 115 116;
#X obj 20 -135 pack;
#X obj 20 -49 sel 127;
#X obj 20 -26 0;
#X obj 71 -49 sel 127;
#X obj 71 -26 1;
#X obj 22 -159 swap;
#X obj 173 168 symbol \$1;
#X obj 234 144 symbol \$1;
#X obj 204 16 loadbang;
#X text 291 -178 this is for recording automation of arbitrary length
in beats;
#X text 290 -140 arg1 is name of array that stores the automation;
#X text 290 -109 save and load look for a file arg1-autom.txt in the
filepath ./state_data/automation/;
#X msg 234 167 read ../data/automation/\$1-autom.txt;
#X msg 171 189 write ../data/automation/\$1-autom.txt;
#X obj 0 0 cnv 15 200 35 empty empty \$1 40 12 0 14 -233017 -66577
0;
#X obj 27 15 tgl 15 0 empty empty empty 17 7 0 10 -262144 -1 -1 0 127
;
#X text 2 15 rec;
#X obj 69 16 tgl 15 0 empty empty empty 17 7 0 10 -262144 -1 -1 0 1
;
#X text 44 16 ply;
#X obj 120 15 bng 15 250 50 0 empty empty empty 17 7 0 10 -262144 -1
-1;
#X text 87 14 save;
#X obj 169 15 bng 15 250 50 0 empty empty empty 17 7 0 10 -262144 -1
-1;
#X text 136 14 load;
#X obj 400 -27 inlet;
#X obj 477 72 array define preset-\$1-0;
#X obj 477 91 array define preset-\$1-1;
#X obj 477 110 array define preset-\$1-2;
#X obj 477 129 array define preset-\$1-3;
#X obj 476 150 array define preset-\$1-4;
#X obj 476 169 array define preset-\$1-5;
#X obj 476 188 array define preset-\$1-6;
#X obj 476 207 array define preset-\$1-7;
#X obj 212 213 array define \$1-autom;
#X obj -1 126 tabwrite preset-\$1-0;
#X obj 46 163 tabread preset-\$1-0;
#X obj 202 499 array get;
#X obj 202 269 until;
#X obj 202 246 8;
#X obj 202 298 t b f;
#X msg 247 412 \$1-\$2;
#X obj 247 390 pack s 0;
#X obj 266 500 array size;
#X obj 245 437 t a b a;
#X obj 264 523 *;
#X obj 246 339 t b f f;
#X obj 293 474 prepend symbol;
#X obj 204 474 prepend symbol;
#X text 267 272 collect patcher-state-data save it as a text file;
#X obj 201 552 array set \$1-autom;
#X obj 247 364 symbol preset-\$1;
#X obj 152 75 t b b;
#X obj 158 113 delay 1000;
#X obj 403 491 array get \$1-autom;
#X obj 228 61 t b b;
#X obj 229 93 delay 1000;
#X obj 463 352 array size \$1-autom;
#X obj 399 314 t b b;
#X obj 404 515 list split;
#X obj 403 388 until;
#X obj 403 365 8;
#X obj 403 417 t b f;
#X obj 470 389 / 8;
#X obj 469 416 t f f;
#X obj 425 465 *;
#X msg 454 632 \$1-\$2;
#X obj 454 610 pack s 0;
#X obj 454 584 symbol preset-\$1;
#X obj 454 658 prepend symbol;
#X obj 406 545 t a b;
#X obj 428 443 t f f;
#X obj 406 687 array set preset-\$1-0;
#X msg 356 75 \$1-\$2;
#X obj 356 53 pack s 0;
#X obj 355 2 t b f f;
#X obj 356 27 symbol preset-\$1;
#X obj 355 100 prepend set;
#X connect 0 0 42 0;
#X connect 0 1 41 1;
#X connect 1 0 0 0;
#X connect 2 0 3 0;
#X connect 2 0 4 0;
#X connect 4 0 41 0;
#X connect 5 0 3 0;
#X connect 6 0 13 0;
#X connect 6 1 13 1;
#X connect 7 0 9 0;
#X connect 7 1 11 0;
#X connect 7 2 23 0;
#X connect 8 0 7 0;
#X connect 9 0 10 0;
#X connect 10 0 25 0;
#X connect 11 0 12 0;
#X connect 12 0 25 0;
#X connect 13 0 8 0;
#X connect 13 1 8 1;
#X connect 14 0 21 0;
#X connect 15 0 20 0;
#X connect 16 0 29 0;
#X connect 20 0 40 0;
#X connect 21 0 40 0;
#X connect 23 0 4 1;
#X connect 25 0 5 1;
#X connect 27 0 58 0;
#X connect 29 0 61 0;
#X connect 31 0 81 0;
#X connect 42 0 5 0;
#X connect 43 0 56 0;
#X connect 44 0 46 0;
#X connect 45 0 44 0;
#X connect 46 0 43 0;
#X connect 46 1 52 0;
#X connect 47 0 50 0;
#X connect 48 0 47 0;
#X connect 49 0 51 0;
#X connect 50 0 54 0;
#X connect 50 1 49 0;
#X connect 50 2 53 0;
#X connect 51 0 56 1;
#X connect 52 0 57 0;
#X connect 52 1 48 1;
#X connect 52 2 51 1;
#X connect 53 0 49 1;
#X connect 54 0 43 2;
#X connect 57 0 48 0;
#X connect 58 0 59 0;
#X connect 58 1 45 0;
#X connect 59 0 14 0;
#X connect 60 0 65 0;
#X connect 61 0 62 0;
#X connect 61 1 15 0;
#X connect 62 0 64 0;
#X connect 63 0 69 0;
#X connect 64 0 67 0;
#X connect 64 1 63 0;
#X connect 65 0 76 0;
#X connect 66 0 68 0;
#X connect 67 0 66 0;
#X connect 68 0 60 0;
#X connect 68 1 77 0;
#X connect 69 0 70 0;
#X connect 70 0 71 1;
#X connect 70 1 65 1;
#X connect 71 0 60 1;
#X connect 72 0 75 0;
#X connect 73 0 72 0;
#X connect 74 0 73 0;
#X connect 75 0 78 2;
#X connect 76 0 78 0;
#X connect 76 1 74 0;
#X connect 77 0 71 0;
#X connect 77 1 73 1;
#X connect 79 0 83 0;
#X connect 80 0 79 0;
#X connect 81 0 82 0;
#X connect 81 1 80 1;
#X connect 82 0 80 0;
#X connect 83 0 42 0;
#X connect 83 0 41 0;
#X coords 0 -1 1 1 200 35 1 0 0;
