#N canvas 49 105 1322 746 10;
#X obj 222 289 bng 32 250 50 0 empty empty empty 17 7 0 10 -262144
-1 -1;
#X obj 246 329 bng 24 250 50 0 empty empty empty 17 7 0 10 -262144
-1 -1;
#X floatatom 77 613 5 0 0 0 - - spine-rot-#1-#0, f 5;
#X floatatom 487 379 5 0 0 0 - n8-#1-#0 -, f 5;
#X floatatom 111 613 5 0 0 0 - - spinerange-#1-#0, f 5;
#X floatatom 684 249 5 0 0 0 - - -, f 5;
#X obj 224 239 spine 8;
#X obj 63 -28 ctlin;
#X floatatom 86 14 5 0 0 0 - - -, f 5;
#X floatatom 115 -1 5 0 0 0 - - -, f 5;
#X floatatom 63 -6 5 0 0 0 - - -, f 5;
#X obj 21 -29 bendin;
#X obj 21 -8 / 8192;
#X obj 570 81 expr (($f1/127) - .5)*2 + 1;
#X obj 495 106 * 8;
#X obj 495 83 both;
#X obj 344 447 outlet;
#X floatatom 454 379 5 0 0 0 - n7-#1-#0 -, f 5;
#X floatatom 420 378 5 0 0 0 - n6-#1-#0 -, f 5;
#X floatatom 387 377 5 0 0 0 - n5-#1-#0 -, f 5;
#X floatatom 352 376 5 0 0 0 - n4-#1-#0 -, f 5;
#X floatatom 318 375 5 0 0 0 - n3-#1-#0 -, f 5;
#X floatatom 285 374 5 0 0 0 - n2-#1-#0 -, f 5;
#X floatatom 251 373 5 0 0 0 - n1-#1-#0 -, f 5;
#X obj 236 396 f 36;
#X obj 270 397 f 37;
#X obj 303 397 f 44;
#X obj 337 399 f 43;
#X obj 372 400 f 42;
#X obj 405 401 f 59;
#X obj 439 402 f 48;
#X obj 474 403 f 47;
#X obj 530 59 inlet;
#X obj 906 156 r countoff-\$1-\$0;
#X obj 224 218 r countoff-\$1-\$0;
#X obj 23 67 inlet;
#X obj 23 89 s countoff-\$1-\$0;
#X obj 570 59 inlet;
#X obj 739 81 expr (($f1/127) - .5)*2 + 1;
#X obj 739 59 inlet;
#X obj 683 209 automator \$1-nbeats;
#X obj 684 267 automator \$1-len;
#X obj 683 325 automator \$1-rot;
#X obj 274 276 eucl3 dwn-\$1;
#X obj 908 81 expr (($f1/127) - .5)*2 + 1;
#X obj 908 59 inlet;
#X obj 478 276 eucl3 up-\$1;
#X obj 793 245 s nbeats-\$1-\$0;
#X obj 814 306 s len-\$1-\$0;
#X obj 683 365 s rot-\$1-\$0;
#X floatatom 683 308 5 0 0 0 - - -, f 5;
#X floatatom 683 190 5 0 0 0 - - -, f 5;
#X obj 684 149 automator \$1-spine;
#X floatatom 684 131 5 0 0 0 - - -, f 5;
#X obj 803 187 s spine-\$1-\$0;
#X obj 225 195 r spine-rot-\$1-\$0;
#X obj 224 173 r spine-\$1-\$0;
#X obj 417 216 r nbeats-\$1-\$0;
#X obj 517 216 r len-\$1-\$0;
#X obj 594 216 r rot-\$1-\$0;
#X obj 408 58 r spinerange-\$1-\$0;
#X connect 0 0 24 0;
#X connect 1 0 25 0;
#X connect 3 0 31 1;
#X connect 5 0 41 0;
#X connect 6 0 0 0;
#X connect 6 1 1 0;
#X connect 6 2 43 0;
#X connect 6 2 46 0;
#X connect 7 0 10 0;
#X connect 7 1 8 0;
#X connect 7 2 9 0;
#X connect 11 0 12 0;
#X connect 13 0 51 0;
#X connect 14 0 53 0;
#X connect 15 0 14 0;
#X connect 15 1 14 1;
#X connect 17 0 30 1;
#X connect 18 0 29 1;
#X connect 19 0 28 1;
#X connect 20 0 27 1;
#X connect 21 0 26 1;
#X connect 22 0 25 1;
#X connect 23 0 24 1;
#X connect 24 0 16 0;
#X connect 25 0 16 0;
#X connect 26 0 16 0;
#X connect 27 0 16 0;
#X connect 28 0 16 0;
#X connect 29 0 16 0;
#X connect 30 0 16 0;
#X connect 31 0 16 0;
#X connect 32 0 15 1;
#X connect 33 0 52 1;
#X connect 33 0 40 1;
#X connect 33 0 41 1;
#X connect 33 0 42 1;
#X connect 34 0 6 0;
#X connect 35 0 36 0;
#X connect 37 0 13 0;
#X connect 38 0 5 0;
#X connect 39 0 38 0;
#X connect 40 0 47 0;
#X connect 41 0 48 0;
#X connect 42 0 49 0;
#X connect 43 0 26 0;
#X connect 43 1 27 0;
#X connect 43 2 28 0;
#X connect 44 0 50 0;
#X connect 45 0 44 0;
#X connect 46 0 29 0;
#X connect 46 1 30 0;
#X connect 46 2 31 0;
#X connect 50 0 42 0;
#X connect 51 0 40 0;
#X connect 52 0 54 0;
#X connect 53 0 52 0;
#X connect 55 0 6 2;
#X connect 56 0 6 1;
#X connect 57 0 43 1;
#X connect 57 0 46 1;
#X connect 58 0 43 2;
#X connect 58 0 46 2;
#X connect 59 0 43 3;
#X connect 59 0 46 3;
#X connect 60 0 15 0;
