#N canvas 514 139 450 300 10;
#X obj 115 112 t f b;
#X obj 154 112 t b f;
#X obj 115 62 inlet;
#X obj 154 62 inlet;
#X obj 101 159 f 1;
#X obj 164 160 f \$1;
#X obj 101 181 outlet;
#X obj 164 182 outlet;
#X connect 0 0 4 0;
#X connect 0 1 5 0;
#X connect 1 0 4 0;
#X connect 1 1 5 0;
#X connect 2 0 0 0;
#X connect 3 0 1 0;
#X connect 4 0 6 0;
#X connect 5 0 7 0;
