#N canvas 740 209 645 457 10;
#X obj 151 185 phasor~;
#X obj 131 44 inlet;
#X obj 214 154 inlet;
#X obj 107 351 cyclone/edge~;
#X obj 133 394 outlet;
#X obj 282 153 inlet;
#X obj -76 51 inlet;
#X obj -76 73 tgl 15 0 empty empty empty 17 7 0 10 -262144 -1 -1 1
1;
#X obj -76 100 switch~;
#X obj 131 105 expr $f1/60;
#X text 98 105 b/s;
#X obj 282 177 0;
#X obj 216 184 zip~;
#X obj 150 259 expr~ $v1 < $v2;
#X obj 151 282 -~ 1;
#X connect 0 0 13 0;
#X connect 1 0 9 0;
#X connect 2 0 12 0;
#X connect 3 0 4 0;
#X connect 3 1 4 0;
#X connect 5 0 11 0;
#X connect 6 0 7 0;
#X connect 7 0 8 0;
#X connect 9 0 0 0;
#X connect 11 0 0 1;
#X connect 12 0 13 1;
#X connect 13 0 14 0;
#X connect 14 0 3 0;
