#N canvas 80 365 1266 553 10;
#X obj 104 76 spine 8;
#X obj -35 466 ctlin;
#X floatatom -12 508 5 0 0 0 - - -, f 5;
#X floatatom 17 493 5 0 0 0 - - -, f 5;
#X floatatom -35 488 5 0 0 0 - - -, f 5;
#X obj -77 465 bendin;
#X obj -77 486 / 8192;
#X obj 450 -44 expr (($f1/127) - .5)*2 + 1;
#X obj 391 2 * 8;
#X obj 391 -21 both;
#X obj 242 364 outlet;
#X obj 412 -66 inlet;
#X obj 104 55 r countoff-\$1-\$0;
#X obj 197 -68 inlet;
#X obj 197 -46 s countoff-\$1-\$0;
#X obj 450 -66 inlet;
#X obj 619 -44 expr (($f1/127) - .5)*2 + 1;
#X obj 619 -66 inlet;
#X obj 788 -44 expr (($f1/127) - .5)*2 + 1;
#X obj 788 -66 inlet;
#X obj 143 35 r spine-rot-\$1-\$0;
#X text -77 441 modulate spine with pitch bend and others with ctl
in;
#X obj 304 -46 r spinecenter-\$1-\$0;
#X obj 958 -65 inlet;
#N canvas 0 22 450 300 notesend 0;
#X obj 87 35 inlet;
#X obj 87 56 unpack 36 37 44 43 42 49 48 47;
#X obj 87 79 s n1-\$1-\$0;
#X obj 107 108 s n2-\$1-\$0;
#X obj 134 131 s n3-\$1-\$0;
#X obj 163 162 s n4-\$1-\$0;
#X obj 194 191 s n5-\$1-\$0;
#X obj 215 218 s n6-\$1-\$0;
#X obj 239 243 s n7-\$1-\$0;
#X obj 265 271 s n8-\$1-\$0;
#X text 142 22 get a notelist to the arpeggiator;
#X connect 0 0 1 0;
#X connect 1 0 2 0;
#X connect 1 1 3 0;
#X connect 1 2 4 0;
#X connect 1 3 5 0;
#X connect 1 4 6 0;
#X connect 1 5 7 0;
#X connect 1 6 8 0;
#X connect 1 7 9 0;
#X restore 958 -44 pd notesend;
#X msg 1051 -68 36 37 44 43 43 49 48 47;
#X obj 99 186 cnv 15 464 100 empty empty empty 20 12 0 14 -228856 -66577
0;
#X obj 104 205 bng 32 250 50 0 empty empty empty 17 7 0 10 -261234
-86277 -1;
#X obj 123 247 bng 24 250 50 0 empty empty empty 17 7 0 10 -261234
-1 -1;
#X obj 101 101 cnv 15 464 84 empty empty ebeat_\$1 300 5 0 14 -128992
-66577 0;
#X floatatom 145 124 5 0 0 0 - spinecenter-#1 -, f 5;
#X obj 371 166 r len-\$1-\$0;
#X obj 448 166 r rot-\$1-\$0;
#X obj 148 106 hsl 128 15 0 16 0 0 spinecenter-\$1 empty empty -2 -8
0 10 -262144 -1 -1 10000 1;
#X floatatom 144 158 5 0 0 0 - spine-rot-#1 -, f 5;
#X obj 281 165 r nbeats-\$1-\$0;
#X obj 147 141 hsl 128 15 0 127 0 0 spine-rot-\$1 empty empty -2 -8
0 10 -262144 -1 -1 4800 1;
#X text 107 107 Spine;
#X text 108 139 Rota;
#X obj 284 124 hradio 32 1 0 8 preset-\$1-\$0 empty empty 0 -8 0 10
-262144 -1 -1 0;
#X obj 101 286 cnv 15 464 64 empty empty empty 20 12 0 14 -128992 -66577
0;
#X floatatom 373 295 5 0 0 0 - n8-#1-#0 -, f 5;
#X floatatom 340 295 5 0 0 0 - n7-#1-#0 -, f 5;
#X floatatom 306 295 5 0 0 0 - n6-#1-#0 -, f 5;
#X floatatom 273 295 5 0 0 0 - n5-#1-#0 -, f 5;
#X floatatom 238 295 5 0 0 0 - n4-#1-#0 -, f 5;
#X floatatom 197 295 5 0 0 0 - n3-#1-#0 -, f 5;
#X floatatom 163 295 5 0 0 0 - n2-#1-#0 -, f 5;
#X floatatom 129 295 5 0 0 0 - n1-#1-#0 -, f 5;
#X obj 125 315 f 36;
#X obj 159 315 f 37;
#X obj 193 315 f 44;
#X obj 234 315 f 43;
#X obj 269 315 f 42;
#X obj 302 315 f 59;
#X obj 336 315 f 48;
#X obj 369 315 f 47;
#X obj 560 101 cnv 15 225 250 empty empty empty 20 12 0 14 -86277 -66577
0;
#X floatatom 567 220 5 0 0 0 - - -, f 5;
#X obj 790 197 r countoff-\$1-\$0;
#X obj 678 215 s nbeats-\$1-\$0;
#X obj 697 277 s len-\$1-\$0;
#X obj 697 332 s rot-\$1-\$0;
#X floatatom 566 279 5 0 0 0 - - -, f 5;
#X floatatom 566 161 5 0 0 0 - - -, f 5;
#X floatatom 566 103 5 0 0 0 - - -, f 5;
#X obj 686 159 s spine-\$1-\$0;
#X obj 237 -68 inlet;
#X obj 338 160 bng 15 250 50 0 preset-save-\$1-\$0 empty Save 17 7
0 10 -262144 -1 -1;
#X obj 242 76 prepend set;
#X obj 328 76 prepend set;
#X obj 498 54 r eucl3-1-\$1-\$0;
#X obj 595 54 r eucl3-2-\$1-\$0;
#X obj 385 161 bng 15 250 50 0 preset-load-\$1-\$0 empty Load 17 7
0 10 -262144 -1 -1;
#X obj 699 55 r current_preset-\$1-\$0;
#X obj 567 121 automator spine-\$1;
#X obj 566 296 automator rot-\$1;
#X obj 567 238 automator len-\$1;
#X obj 565 179 automator nbeats-\$1;
#X msg 848 50 2 3 4 2 3 4 2 3 4;
#X msg 339 -77 1;
#X obj 285 160 bng 15 250 50 0 preset-store-\$1-\$0 empty Store 17
7 0 10 -262144 -1 -1;
#X obj -91 89 r preset-\$1-\$0;
#X obj -91 111 preset_rw \$1;
#N canvas 262 22 620 398 param_list 1;
#X msg 98 208 spinecenter-\\\$1 48 \, spine-rot-\\\$1 48 \, nbeats1-up-\\\\\\\$1
19 \, len1-up-\\\\\\\$1 17 \, rot1-up-\\\\\\\$1 8 \, len2-up-\\\\\\\$1
4 \, rot2-up-\\\\\\\$1 17 \, nbeats3-up-\\\\\\\$1 15 \, len3-up-\\\\\\\$1
30 \, rot3-up-\\\\\\\$1 1 \, nbeats2-up-\\\\\\\$1 1 \, len1-dwn-\\\\\\\$1
1 \, len2-dwn-\\\\\\\$1 1 \, len3-dwn-\\\\\\\$1 1 \, nbeats1-dwn-\\\\\\\$1
1 \, nbeats2-dwn-\\\\\\\$1 2 \, nbeats3-dwn-\\\\\\\$1 2 \, rot1-dwn-\\\\\\\$1
1 \, rot2-dwn-\\\\\\\$1 1 \, rot3-dwn-\\\\\\\$1 1 \, spinecenter-\\\$1
14.3622 \, spine-rot-\\\$1 33 \, nbeats1-up-\\\\\\\$1 19 \, len1-up-\\\\\\\$1
17 \, rot1-up-\\\\\\\$1 8 \, len2-up-\\\\\\\$1 4 \, rot2-up-\\\\\\\$1
17 \, nbeats3-up-\\\\\\\$1 15 \, len3-up-\\\\\\\$1 30 \, rot3-up-\\\\\\\$1
1 \, nbeats2-up-\\\\\\\$1 1 \, len1-dwn-\\\\\\\$1 1 \, len2-dwn-\\\\\\\$1
1 \, len3-dwn-\\\\\\\$1 1 \, nbeats1-dwn-\\\\\\\$1 1 \, nbeats2-dwn-\\\\\\\$1
2 \, nbeats3-dwn-\\\\\\\$1 2 \, rot1-dwn-\\\\\\\$1 1 \, rot2-dwn-\\\\\\\$1
1 \, rot3-dwn-\\\\\\\$1 1 \, spinecenter-\\\$1 48 \, spine-rot-\\\$1
48 \, nbeats1-up-\\\\\\\$1 19 \, len1-up-\\\\\\\$1 17 \, rot1-up-\\\\\\\$1
8 \, len2-up-\\\\\\\$1 4 \, rot2-up-\\\\\\\$1 17 \, nbeats3-up-\\\\\\\$1
15 \, len3-up-\\\\\\\$1 30 \, rot3-up-\\\\\\\$1 1 \, nbeats2-up-\\\\\\\$1
1 \, len1-dwn-\\\\\\\$1 1 \, len2-dwn-\\\\\\\$1 1 \, len3-dwn-\\\\\\\$1
1 \, nbeats1-dwn-\\\\\\\$1 1 \, nbeats2-dwn-\\\\\\\$1 2 \, nbeats3-dwn-\\\\\\\$1
2 \, rot1-dwn-\\\\\\\$1 1 \, rot2-dwn-\\\\\\\$1 1 \, rot3-dwn-\\\\\\\$1
1 \, spinecenter-\\\$1 13.7323 \, spine-rot-\\\$1 16 \, nbeats1-up-\\\\\\\$1
16 \, len1-up-\\\\\\\$1 26 \, rot1-up-\\\\\\\$1 26 \, len2-up-\\\\\\\$1
13 \, rot2-up-\\\\\\\$1 7 \, nbeats3-up-\\\\\\\$1 23 \, len3-up-\\\\\\\$1
48 \, rot3-up-\\\\\\\$1 7 \, nbeats2-up-\\\\\\\$1 4 \, len1-dwn-\\\\\\\$1
13 \, len2-dwn-\\\\\\\$1 11 \, len3-dwn-\\\\\\\$1 11 \, nbeats1-dwn-\\\\\\\$1
15 \, nbeats2-dwn-\\\\\\\$1 6 \, nbeats3-dwn-\\\\\\\$1 11 \, rot1-dwn-\\\\\\\$1
18 \, rot2-dwn-\\\\\\\$1 14 \, rot3-dwn-\\\\\\\$1 16 \, spinecenter-\\\$1
48 \, spine-rot-\\\$1 48 \, nbeats1-up-\\\\\\\$1 19 \, len1-up-\\\\\\\$1
17 \, rot1-up-\\\\\\\$1 8 \, len2-up-\\\\\\\$1 4 \, rot2-up-\\\\\\\$1
17 \, nbeats3-up-\\\\\\\$1 15 \, len3-up-\\\\\\\$1 30 \, rot3-up-\\\\\\\$1
1 \, nbeats2-up-\\\\\\\$1 1 \, len1-dwn-\\\\\\\$1 1 \, len2-dwn-\\\\\\\$1
1 \, len3-dwn-\\\\\\\$1 1 \, nbeats1-dwn-\\\\\\\$1 1 \, nbeats2-dwn-\\\\\\\$1
2 \, nbeats3-dwn-\\\\\\\$1 2 \, rot1-dwn-\\\\\\\$1 1 \, rot2-dwn-\\\\\\\$1
1 \, rot3-dwn-\\\\\\\$1 1 \, spinecenter-\\\$1 13.7323 \, spine-rot-\\\$1
16 \, nbeats1-up-\\\\\\\$1 16 \, len1-up-\\\\\\\$1 26 \, rot1-up-\\\\\\\$1
26 \, len2-up-\\\\\\\$1 13 \, rot2-up-\\\\\\\$1 7 \, nbeats3-up-\\\\\\\$1
23 \, len3-up-\\\\\\\$1 48 \, rot3-up-\\\\\\\$1 7 \, nbeats2-up-\\\\\\\$1
4 \, len1-dwn-\\\\\\\$1 13 \, len2-dwn-\\\\\\\$1 11 \, len3-dwn-\\\\\\\$1
11 \, nbeats1-dwn-\\\\\\\$1 15 \, nbeats2-dwn-\\\\\\\$1 6 \, nbeats3-dwn-\\\\\\\$1
11 \, rot1-dwn-\\\\\\\$1 18 \, rot2-dwn-\\\\\\\$1 14 \, rot3-dwn-\\\\\\\$1
16 \, spinecenter-\\\$1 48 \, spine-rot-\\\$1 48 \, nbeats1-up-\\\\\\\$1
19 \, len1-up-\\\\\\\$1 17 \, rot1-up-\\\\\\\$1 8 \, len2-up-\\\\\\\$1
4 \, rot2-up-\\\\\\\$1 17 \, nbeats3-up-\\\\\\\$1 15 \, len3-up-\\\\\\\$1
30 \, rot3-up-\\\\\\\$1 1 \, nbeats2-up-\\\\\\\$1 1 \, len1-dwn-\\\\\\\$1
1 \, len2-dwn-\\\\\\\$1 1 \, len3-dwn-\\\\\\\$1 1 \, nbeats1-dwn-\\\\\\\$1
1 \, nbeats2-dwn-\\\\\\\$1 2 \, nbeats3-dwn-\\\\\\\$1 2 \, rot1-dwn-\\\\\\\$1
1 \, rot2-dwn-\\\\\\\$1 1 \, rot3-dwn-\\\\\\\$1 1 \, spinecenter-\\\$1
12.5984 \, spine-rot-\\\$1 48 \, nbeats1-up-\\\\\\\$1 19 \, len1-up-\\\\\\\$1
17 \, rot1-up-\\\\\\\$1 8 \, len2-up-\\\\\\\$1 4 \, rot2-up-\\\\\\\$1
17 \, nbeats3-up-\\\\\\\$1 15 \, len3-up-\\\\\\\$1 30 \, rot3-up-\\\\\\\$1
1 \, nbeats2-up-\\\\\\\$1 1 \, len1-dwn-\\\\\\\$1 1 \, len2-dwn-\\\\\\\$1
1 \, len3-dwn-\\\\\\\$1 1 \, nbeats1-dwn-\\\\\\\$1 1 \, nbeats2-dwn-\\\\\\\$1
2 \, nbeats3-dwn-\\\\\\\$1 2 \, rot1-dwn-\\\\\\\$1 1 \, rot2-dwn-\\\\\\\$1
1 \, rot3-dwn-\\\\\\\$1 1 \, spinecenter-\\\$1 12.5984 \, spine-rot-\\\$1
48 \, nbeats1-up-\\\\\\\$1 19 \, len1-up-\\\\\\\$1 17 \, rot1-up-\\\\\\\$1
8 \, len2-up-\\\\\\\$1 4 \, rot2-up-\\\\\\\$1 17 \, nbeats3-up-\\\\\\\$1
15 \, len3-up-\\\\\\\$1 30 \, rot3-up-\\\\\\\$1 1 \, nbeats2-up-\\\\\\\$1
1 \, len1-dwn-\\\\\\\$1 1 \, len2-dwn-\\\\\\\$1 1 \, len3-dwn-\\\\\\\$1
1 \, nbeats1-dwn-\\\\\\\$1 1 \, nbeats2-dwn-\\\\\\\$1 2 \, nbeats3-dwn-\\\\\\\$1
2 \, rot1-dwn-\\\\\\\$1 1 \, rot2-dwn-\\\\\\\$1 1 \, rot3-dwn-\\\\\\\$1
1 \, spinecenter-\\\$1 48 \, spine-rot-\\\$1 48 \, nbeats1-up-\\\\\\\$1
19 \, len1-up-\\\\\\\$1 17 \, rot1-up-\\\\\\\$1 8 \, len2-up-\\\\\\\$1
4 \, rot2-up-\\\\\\\$1 17 \, nbeats3-up-\\\\\\\$1 15 \, len3-up-\\\\\\\$1
30 \, rot3-up-\\\\\\\$1 1 \, nbeats2-up-\\\\\\\$1 1 \, len1-dwn-\\\\\\\$1
1 \, len2-dwn-\\\\\\\$1 1 \, len3-dwn-\\\\\\\$1 1 \, nbeats1-dwn-\\\\\\\$1
1 \, nbeats2-dwn-\\\\\\\$1 2 \, nbeats3-dwn-\\\\\\\$1 2 \, rot1-dwn-\\\\\\\$1
1 \, rot2-dwn-\\\\\\\$1 1 \, rot3-dwn-\\\\\\\$1 1 \, spinecenter-\\\$1
13.7323 \, spine-rot-\\\$1 16 \, nbeats1-up-\\\\\\\$1 16 \, len1-up-\\\\\\\$1
26 \, rot1-up-\\\\\\\$1 26 \, len2-up-\\\\\\\$1 13 \, rot2-up-\\\\\\\$1
7 \, nbeats3-up-\\\\\\\$1 23 \, len3-up-\\\\\\\$1 48 \, rot3-up-\\\\\\\$1
7 \, nbeats2-up-\\\\\\\$1 4 \, len1-dwn-\\\\\\\$1 13 \, len2-dwn-\\\\\\\$1
11 \, len3-dwn-\\\\\\\$1 11 \, nbeats1-dwn-\\\\\\\$1 15 \, nbeats2-dwn-\\\\\\\$1
6 \, nbeats3-dwn-\\\\\\\$1 11 \, rot1-dwn-\\\\\\\$1 18 \, rot2-dwn-\\\\\\\$1
14 \, rot3-dwn-\\\\\\\$1 16 \, spinecenter-\\\$1 10.3307 \, spine-rot-\\\$1
9 \, nbeats1-up-\\\\\\\$1 9 \, len1-up-\\\\\\\$1 9 \, rot1-up-\\\\\\\$1
9 \, len2-up-\\\\\\\$1 9 \, rot2-up-\\\\\\\$1 9 \, nbeats3-up-\\\\\\\$1
9 \, len3-up-\\\\\\\$1 9 \, rot3-up-\\\\\\\$1 9 \, nbeats2-up-\\\\\\\$1
9 \, len1-dwn-\\\\\\\$1 9 \, len2-dwn-\\\\\\\$1 9 \, len3-dwn-\\\\\\\$1
9 \, nbeats1-dwn-\\\\\\\$1 9 \, nbeats2-dwn-\\\\\\\$1 9 \, nbeats3-dwn-\\\\\\\$1
9 \, rot1-dwn-\\\\\\\$1 9 \, rot2-dwn-\\\\\\\$1 9 \, rot3-dwn-\\\\\\\$1
9 \, spinecenter-\\\$1 9 \, spine-rot-\\\$1 9 \, nbeats1-up-\\\\\\\$1
9 \, len1-up-\\\\\\\$1 9 \, rot1-up-\\\\\\\$1 9 \, len2-up-\\\\\\\$1
9 \, rot2-up-\\\\\\\$1 9 \, nbeats3-up-\\\\\\\$1 9 \, len3-up-\\\\\\\$1
9 \, rot3-up-\\\\\\\$1 9 \, nbeats2-up-\\\\\\\$1 9 \, len1-dwn-\\\\\\\$1
9 \, len2-dwn-\\\\\\\$1 9 \, len3-dwn-\\\\\\\$1 9 \, nbeats1-dwn-\\\\\\\$1
9 \, nbeats2-dwn-\\\\\\\$1 9 \, nbeats3-dwn-\\\\\\\$1 9 \, rot1-dwn-\\\\\\\$1
9 \, rot2-dwn-\\\\\\\$1 9 \, rot3-dwn-\\\\\\\$1 9 \, spinecenter-\\\$1
13.7323 \, spine-rot-\\\$1 16 \, nbeats1-up-\\\\\\\$1 16 \, len1-up-\\\\\\\$1
26 \, rot1-up-\\\\\\\$1 26 \, len2-up-\\\\\\\$1 13 \, rot2-up-\\\\\\\$1
7 \, nbeats3-up-\\\\\\\$1 23 \, len3-up-\\\\\\\$1 48 \, rot3-up-\\\\\\\$1
7 \, nbeats2-up-\\\\\\\$1 4 \, len1-dwn-\\\\\\\$1 13 \, len2-dwn-\\\\\\\$1
11 \, len3-dwn-\\\\\\\$1 11 \, nbeats1-dwn-\\\\\\\$1 15 \, nbeats2-dwn-\\\\\\\$1
6 \, nbeats3-dwn-\\\\\\\$1 11 \, rot1-dwn-\\\\\\\$1 18 \, rot2-dwn-\\\\\\\$1
14 \, rot3-dwn-\\\\\\\$1 16 \, spinecenter-\\\$1 14.3622 \, spine-rot-\\\$1
33 \, nbeats1-up-\\\\\\\$1 19 \, len1-up-\\\\\\\$1 17 \, rot1-up-\\\\\\\$1
8 \, len2-up-\\\\\\\$1 4 \, rot2-up-\\\\\\\$1 17 \, nbeats3-up-\\\\\\\$1
15 \, len3-up-\\\\\\\$1 30 \, rot3-up-\\\\\\\$1 1 \, nbeats2-up-\\\\\\\$1
1 \, len1-dwn-\\\\\\\$1 1 \, len2-dwn-\\\\\\\$1 1 \, len3-dwn-\\\\\\\$1
1 \, nbeats1-dwn-\\\\\\\$1 1 \, nbeats2-dwn-\\\\\\\$1 2 \, nbeats3-dwn-\\\\\\\$1
2 \, rot1-dwn-\\\\\\\$1 1 \, rot2-dwn-\\\\\\\$1 1 \, rot3-dwn-\\\\\\\$1
1 \, spinecenter-\\\$1 12.5984 \, spine-rot-\\\$1 48 \, nbeats1-up-\\\\\\\$1
19 \, len1-up-\\\\\\\$1 17 \, rot1-up-\\\\\\\$1 8 \, len2-up-\\\\\\\$1
4 \, rot2-up-\\\\\\\$1 17 \, nbeats3-up-\\\\\\\$1 15 \, len3-up-\\\\\\\$1
30 \, rot3-up-\\\\\\\$1 1 \, nbeats2-up-\\\\\\\$1 1 \, len1-dwn-\\\\\\\$1
1 \, len2-dwn-\\\\\\\$1 1 \, len3-dwn-\\\\\\\$1 1 \, nbeats1-dwn-\\\\\\\$1
1 \, nbeats2-dwn-\\\\\\\$1 2 \, nbeats3-dwn-\\\\\\\$1 2 \, rot1-dwn-\\\\\\\$1
1 \, rot2-dwn-\\\\\\\$1 1 \, rot3-dwn-\\\\\\\$1 1 \,;
#X msg 203 97 addcomma;
#X obj 8 13 r preset-store-\$1-\$0;
#X obj 8 35 t b b;
#X msg 7 59 set;
#X obj 99 273 outlet;
#X obj 203 72 t b a;
#X obj 203 40 inlet;
#X text 190 -3 there is probably a soln for this with text object that's
more elegant;
#X obj 116 158 prepend add2;
#X connect 0 0 5 0;
#X connect 1 0 0 0;
#X connect 2 0 3 0;
#X connect 3 0 4 0;
#X connect 3 1 0 0;
#X connect 4 0 0 0;
#X connect 6 0 1 0;
#X connect 6 1 9 0;
#X connect 7 0 6 0;
#X connect 9 0 0 0;
#X restore -56 65 pd param_list;
#N canvas 103 22 450 300 rwso 0;
#X obj 9 52 r preset-save-\$1-\$0;
#X msg 9 80 w;
#X obj 37 71 r preset-load-\$1-\$0;
#X msg 37 91 r;
#X obj 131 52 r preset-save_as-\$1-\$0;
#X msg 70 99 s;
#X msg 103 112 o;
#X obj 158 71 r preset-open-\$1-\$0;
#X obj 28 168 outlet;
#X connect 0 0 1 0;
#X connect 1 0 8 0;
#X connect 2 0 3 0;
#X connect 3 0 8 0;
#X connect 4 0 5 0;
#X connect 5 0 8 0;
#X connect 6 0 8 0;
#X connect 7 0 6 0;
#X restore 0 89 pd rwso;
#X obj 339 383 s \$0-params;
#X obj 500 423 prepend set;
#X msg 500 445 nbeats2-up-\\\\\\\$1 1;
#X obj -33 30 r \$0-params;
#X obj 354 194 eucl3 up-\$1;
#X obj 150 193 eucl3 dwn-\$1;
#X obj 123 15 r spine-\$1-\$0;
#X obj 254 54 r spinecenter-\$1;
#X obj 376 54 r spine-rot-\$1;
#X obj -81 -41 param_get spine-rot-\$1;
#X obj -57 -21 param_get spinecenter-\$1;
#X connect 0 0 27 0;
#X connect 0 1 28 0;
#X connect 0 2 90 0;
#X connect 0 2 91 0;
#X connect 1 0 4 0;
#X connect 1 1 2 0;
#X connect 1 2 3 0;
#X connect 5 0 6 0;
#X connect 7 0 64 0;
#X connect 8 0 65 0;
#X connect 9 0 8 0;
#X connect 9 1 8 1;
#X connect 11 0 9 1;
#X connect 12 0 0 0;
#X connect 13 0 14 0;
#X connect 15 0 7 0;
#X connect 16 0 58 0;
#X connect 17 0 16 0;
#X connect 18 0 63 0;
#X connect 19 0 18 0;
#X connect 20 0 0 2;
#X connect 22 0 9 0;
#X connect 23 0 24 0;
#X connect 25 0 24 0;
#X connect 27 0 49 0;
#X connect 28 0 50 0;
#X connect 31 0 91 2;
#X connect 32 0 91 3;
#X connect 35 0 90 1;
#X connect 35 0 91 1;
#X connect 41 0 56 1;
#X connect 42 0 55 1;
#X connect 43 0 54 1;
#X connect 44 0 53 1;
#X connect 45 0 52 1;
#X connect 46 0 51 1;
#X connect 47 0 50 1;
#X connect 48 0 49 1;
#X connect 49 0 10 0;
#X connect 50 0 10 0;
#X connect 51 0 10 0;
#X connect 52 0 10 0;
#X connect 53 0 10 0;
#X connect 54 0 10 0;
#X connect 55 0 10 0;
#X connect 56 0 10 0;
#X connect 58 0 77 0;
#X connect 59 0 75 1;
#X connect 59 0 76 1;
#X connect 59 0 77 1;
#X connect 59 0 78 1;
#X connect 63 0 76 0;
#X connect 64 0 78 0;
#X connect 65 0 75 0;
#X connect 67 0 39 0;
#X connect 69 0 33 0;
#X connect 70 0 36 0;
#X connect 71 0 91 4;
#X connect 72 0 90 4;
#X connect 74 0 39 0;
#X connect 75 0 66 0;
#X connect 76 0 62 0;
#X connect 77 0 61 0;
#X connect 78 0 60 0;
#X connect 79 0 91 4;
#X connect 80 0 9 1;
#X connect 82 0 83 0;
#X connect 84 0 83 1;
#X connect 85 0 83 2;
#X connect 87 0 88 0;
#X connect 89 0 84 0;
#X connect 90 0 54 0;
#X connect 90 1 55 0;
#X connect 90 2 56 0;
#X connect 90 3 86 0;
#X connect 90 3 87 0;
#X connect 91 0 51 0;
#X connect 91 1 52 0;
#X connect 91 2 53 0;
#X connect 91 3 86 0;
#X connect 92 0 0 1;
#X connect 93 0 69 0;
#X connect 94 0 70 0;
#X connect 95 0 84 0;
#X connect 96 0 84 0;
#X coords 0 -1 1 1 684 250 1 100 100;
