#N canvas 392 142 994 663 10;
#X obj 56 401 euclid 4 16 2;
#X obj 143 400 euclid 4 16 2;
#X obj 236 399 euclid 4 16 2;
#X obj 37 376 inlet;
#X obj 150 216 inlet;
#X obj 84 373 x 1;
#X obj 169 372 x 1;
#X obj 259 373 x 1;
#X obj 113 374 x 1;
#X obj 198 373 x 1;
#X obj 288 374 x 1;
#X obj 314 375 plus;
#X obj 226 373 plus;
#X obj 137 373 plus;
#X obj 150 238 t f f f;
#X obj 198 216 inlet;
#X obj 198 238 t f f f;
#X obj 247 216 inlet;
#X obj 247 238 t f f f;
#X obj 105 188 outlet;
#X obj 147 189 outlet;
#X obj 192 190 outlet;
#N canvas 323 379 953 379 rec-seteucl3 0;
#X obj 28 -25 prepend set;
#X obj 189 -29 prepend set;
#X obj 343 -30 prepend set;
#X obj 72 21 prepend set;
#X obj 231 15 prepend set;
#X obj 387 14 prepend set;
#X obj 122 64 prepend set;
#X obj 277 62 prepend set;
#X obj 430 55 prepend set;
#X obj 27 -2 outlet;
#X obj 72 43 outlet;
#X obj 122 86 outlet;
#X obj 189 -7 outlet;
#X obj 231 37 outlet;
#X obj 277 84 outlet;
#X obj 343 -8 outlet;
#X obj 387 35 outlet;
#X obj 430 77 outlet;
#X obj 28 -48 r nbeats1-\$0;
#X obj 72 -1 r len1-\$0;
#X obj 122 42 r rot1-\$0;
#X obj 277 40 r rot2-\$0;
#X obj 231 -7 r len2-\$0;
#X obj 190 -51 r nbeats2-\$0;
#X obj 343 -51 r nbeats3-\$0;
#X obj 387 -8 r len3-\$0;
#X obj 430 34 r rot3-\$0;
#X connect 0 0 9 0;
#X connect 1 0 12 0;
#X connect 2 0 15 0;
#X connect 3 0 10 0;
#X connect 4 0 13 0;
#X connect 5 0 16 0;
#X connect 6 0 11 0;
#X connect 7 0 14 0;
#X connect 8 0 17 0;
#X connect 18 0 0 0;
#X connect 19 0 3 0;
#X connect 20 0 6 0;
#X connect 21 0 7 0;
#X connect 22 0 4 0;
#X connect 23 0 1 0;
#X connect 24 0 2 0;
#X connect 25 0 5 0;
#X connect 26 0 8 0;
#X restore 205 75 pd rec-seteucl3;
#N canvas 283 293 450 300 rec-eucl3 0;
#X obj 27 -2 outlet;
#X obj 72 43 outlet;
#X obj 122 86 outlet;
#X obj 189 -7 outlet;
#X obj 231 37 outlet;
#X obj 277 84 outlet;
#X obj 343 -8 outlet;
#X obj 387 35 outlet;
#X obj 430 77 outlet, f 16;
#X obj 28 -48 r nbeats1-\$0;
#X obj 72 -1 r len1-\$0;
#X obj 122 42 r rot1-\$0;
#X obj 190 -51 r nbeats2-\$0;
#X obj 231 -7 r len2-\$0;
#X obj 277 40 r rot3-\$0;
#X obj 343 -51 r nbeats3-\$0;
#X obj 387 -8 r len3-\$0;
#X obj 430 34 r rot3-\$0;
#X connect 9 0 0 0;
#X connect 10 0 1 0;
#X connect 11 0 2 0;
#X connect 12 0 3 0;
#X connect 13 0 4 0;
#X connect 14 0 5 0;
#X connect 15 0 6 0;
#X connect 16 0 7 0;
#X connect 17 0 8 0;
#X restore 137 293 pd rec-eucl3;
#X text 123 -23 ============================================================
;
#X text 124 -56 3 braided euclid generators... inlets are multipliers
on the numbers specified by the number boxes;
#X obj 340 -6 inlet;
#X obj 552 534 outlet;
#N canvas 307 339 450 300 rec-eucl3 0;
#X obj 27 -2 outlet;
#X obj 72 43 outlet;
#X obj 122 86 outlet;
#X obj 189 -7 outlet;
#X obj 231 37 outlet;
#X obj 277 84 outlet;
#X obj 343 -8 outlet;
#X obj 387 35 outlet;
#X obj 430 77 outlet, f 41;
#X obj 28 -48 r nbeats1-\$0;
#X obj 72 -1 r len1-\$0;
#X obj 122 42 r rot1-\$0;
#X obj 231 -7 r len2-\$0;
#X obj 190 -51 r nbeats2-\$0;
#X obj 277 40 r rot2-\$0, f 20;
#X obj 343 -51 r nbeats3-\$0;
#X obj 387 -8 r len3-\$0;
#X obj 430 34 r rot3-\$0;
#X connect 9 0 0 0;
#X connect 10 0 1 0;
#X connect 11 0 2 0;
#X connect 12 0 4 0;
#X connect 13 0 3 0;
#X connect 14 0 5 0;
#X connect 15 0 6 0;
#X connect 16 0 7 0;
#X connect 17 0 8 0;
#X restore 617 383 pd rec-eucl3;
#X obj 551 497 pack 4 16 0 4 16 0 4 16 0, f 53;
#X obj 550 429 f;
#X obj 575 451 t b a;
#X obj 575 429 f;
#X obj 614 452 t b a;
#X obj 614 430 f;
#X obj 652 452 t b a;
#X obj 652 430 f;
#X obj 690 452 t b a;
#X obj 690 430 f;
#X obj 728 453 t b a;
#X obj 728 431 f;
#X obj 769 457 t b a;
#X obj 769 435 f;
#X obj 808 458 t b a;
#X obj 808 436 f;
#X obj 850 457 t b a;
#X obj 850 435 f;
#X obj 100 100 cnv 15 200 85 empty empty nbeats/len/rot 20 12 0 14
-191407 -66577 0;
#X floatatom 115 119 5 0 0 0 - - nbeats1-#0, f 5;
#X floatatom 148 120 5 0 0 0 - - len1-#0, f 5;
#X floatatom 181 120 5 0 0 0 - - rot1-#0, f 5;
#X obj 114 135 bng 15 250 50 0 empty empty X 17 7 0 10 -262144 -1 -1
;
#X floatatom 150 138 5 0 0 0 - - nbeats2-#0, f 5;
#X floatatom 183 138 5 0 0 0 - - len2-#0, f 5;
#X floatatom 216 138 5 0 0 0 - - rot2-#1-#0, f 5;
#X floatatom 192 155 5 0 0 0 - - nbeats3-#0, f 5;
#X floatatom 224 156 5 0 0 0 - - len3-#0, f 5;
#X floatatom 257 156 5 0 0 0 - - rot3-#0, f 5;
#X obj 150 153 bng 15 250 50 0 empty empty empty 17 7 0 10 -262144
-1 -1;
#X obj 191 170 bng 15 250 50 0 empty empty empty 17 7 0 10 -262144
-1 -1;
#X obj 430 248 prepend set;
#X msg 430 269 dwn-drumkit-4734 1 2 3 1 2 3 1 2 3;
#X obj 339 29 prepend \$0;
#N canvas 283 293 450 300 rec-eucl3 0;
#X obj 27 -2 outlet;
#X obj 72 43 outlet;
#X obj 122 86 outlet;
#X obj 189 -7 outlet;
#X obj 231 37 outlet;
#X obj 277 84 outlet;
#X obj 343 -8 outlet;
#X obj 387 35 outlet;
#X obj 430 77 outlet, f 16;
#X obj 28 -48 r nbeats1-\$0;
#X obj 72 -1 r len1-\$0;
#X obj 122 42 r rot1-\$0;
#X obj 190 -51 r nbeats2-\$0;
#X obj 231 -7 r len2-\$0;
#X obj 277 40 r rot3-\$0;
#X obj 343 -51 r nbeats3-\$0;
#X obj 387 -8 r len3-\$0;
#X obj 430 34 r rot3-\$0;
#X connect 9 0 0 0;
#X connect 10 0 1 0;
#X connect 11 0 2 0;
#X connect 12 0 3 0;
#X connect 13 0 4 0;
#X connect 14 0 5 0;
#X connect 15 0 6 0;
#X connect 16 0 7 0;
#X connect 17 0 8 0;
#X restore 137 293 pd rec-eucl3;
#X text 366 445 how i miss the pak object:;
#X msg 338 115 \; nbeats1-\$1 \$2 \; nbeats2-\$1 \$5 \; nbeats3-\$1
\$8 \; len1-\$1 \$3 \; len2-\$1 \$6 \; len3-\$1 \$9 \; rot1-\$1 \$4
\; rot2-\$1 \$7 \; rot3-\$1 \$10 \;;
#X msg 382 -3 4 16 2 4 16 2 4 16 2;
#X obj 253 431 s o3-\$0;
#X obj 160 432 s o2-\$0;
#X obj 68 430 s o1-\$0;
#X obj 98 9 r o1-\$0;
#X obj 131 29 r o2-\$0;
#X obj 171 45 r o3-\$0;
#X connect 0 0 69 0;
#X connect 0 1 1 0;
#X connect 1 0 68 0;
#X connect 1 1 2 0;
#X connect 2 0 67 0;
#X connect 3 0 0 0;
#X connect 4 0 14 0;
#X connect 5 0 0 1;
#X connect 6 0 1 1;
#X connect 7 0 2 1;
#X connect 8 0 0 2;
#X connect 9 0 1 2;
#X connect 10 0 2 2;
#X connect 11 0 2 3;
#X connect 12 0 1 3;
#X connect 13 0 0 3;
#X connect 14 0 5 1;
#X connect 14 1 6 1;
#X connect 14 2 7 1;
#X connect 15 0 16 0;
#X connect 16 0 8 1;
#X connect 16 1 9 1;
#X connect 16 2 10 1;
#X connect 17 0 18 0;
#X connect 18 0 13 1;
#X connect 18 1 12 1;
#X connect 18 2 11 1;
#X connect 22 0 48 0;
#X connect 22 1 49 0;
#X connect 22 2 50 0;
#X connect 22 3 52 0;
#X connect 22 4 53 0;
#X connect 22 5 54 0;
#X connect 22 6 55 0;
#X connect 22 7 56 0;
#X connect 22 8 57 0;
#X connect 23 0 5 0;
#X connect 23 1 8 0;
#X connect 23 2 13 0;
#X connect 23 3 6 0;
#X connect 23 4 9 0;
#X connect 23 5 12 0;
#X connect 23 6 7 0;
#X connect 23 7 10 0;
#X connect 23 8 11 0;
#X connect 26 0 62 0;
#X connect 28 0 30 0;
#X connect 28 1 32 0;
#X connect 28 2 34 0;
#X connect 28 3 36 0;
#X connect 28 4 38 0;
#X connect 28 5 40 0;
#X connect 28 6 42 0;
#X connect 28 7 44 0;
#X connect 28 8 46 0;
#X connect 29 0 27 0;
#X connect 30 0 29 0;
#X connect 31 0 30 0;
#X connect 31 1 29 1;
#X connect 32 0 31 0;
#X connect 33 0 32 0;
#X connect 33 1 29 2;
#X connect 34 0 33 0;
#X connect 35 0 34 0;
#X connect 35 1 29 3;
#X connect 36 0 35 0;
#X connect 37 0 36 0;
#X connect 37 1 29 4;
#X connect 38 0 37 0;
#X connect 39 0 38 0;
#X connect 39 1 29 5;
#X connect 40 0 39 0;
#X connect 41 0 40 0;
#X connect 41 1 29 6;
#X connect 42 0 41 0;
#X connect 43 0 42 0;
#X connect 43 1 29 7;
#X connect 44 0 43 0;
#X connect 45 0 44 0;
#X connect 45 1 29 8;
#X connect 46 0 45 0;
#X connect 51 0 19 0;
#X connect 58 0 20 0;
#X connect 59 0 21 0;
#X connect 60 0 61 0;
#X connect 62 0 65 0;
#X connect 65 0 60 0;
#X connect 66 0 62 0;
#X connect 70 0 51 0;
#X connect 71 0 58 0;
#X connect 72 0 59 0;
#X coords 0 -1 1 1 200 85 2 100 100;
