#N canvas 305 107 994 663 10;
#X obj 56 401 euclid 4 16 2;
#X obj 143 400 euclid 4 16 2;
#X obj 236 399 euclid 4 16 2;
#X obj 37 376 inlet;
#X obj 183 273 inlet;
#X obj 84 373 x 1;
#X obj 169 372 x 1;
#X obj 259 373 x 1;
#X obj 113 374 x 1;
#X obj 198 373 x 1;
#X obj 288 374 x 1;
#X obj 314 375 plus;
#X obj 226 373 plus;
#X obj 137 373 plus;
#X obj 183 295 t f f f;
#X obj 243 273 inlet;
#X obj 243 295 t f f f;
#X obj 298 273 inlet;
#X obj 298 295 t f f f;
#X obj 105 188 outlet;
#X obj 147 189 outlet;
#X obj 192 190 outlet;
#N canvas 283 293 450 300 rec-eucl3 0;
#X obj 27 -2 outlet;
#X obj 72 43 outlet;
#X obj 122 86 outlet;
#X obj 189 -7 outlet;
#X obj 231 37 outlet;
#X obj 277 84 outlet;
#X obj 343 -8 outlet;
#X obj 387 35 outlet;
#X obj 430 77 outlet, f 16;
#X obj 27 -48 r nbeats1-\$1;
#X obj 72 -1 r len1-\$1;
#X obj 122 42 r rot1-\$1;
#X obj 190 -51 r nbeats2-\$1;
#X obj 231 -7 r len2-\$1;
#X obj 277 40 r rot3-\$1;
#X obj 343 -51 r nbeats3-\$1;
#X obj 389 -8 r len3-\$1;
#X obj 430 34 r rot3-\$1;
#X connect 9 0 0 0;
#X connect 10 0 1 0;
#X connect 11 0 2 0;
#X connect 12 0 3 0;
#X connect 13 0 4 0;
#X connect 14 0 5 0;
#X connect 15 0 6 0;
#X connect 16 0 7 0;
#X connect 17 0 8 0;
#X restore 86 311 pd rec-eucl3;
#X text 123 -23 ============================================================
;
#X text 124 -56 3 braided euclid generators... inlets are multipliers
on the numbers specified by the number boxes;
#X obj 340 -6 inlet;
#X obj 697 249 outlet;
#X floatatom 115 119 5 0 0 0 - - nbeats1-#1, f 5;
#X floatatom 148 120 5 0 0 0 - - len1-#1, f 5;
#X floatatom 181 120 5 0 0 0 - - rot1-#1, f 5;
#X obj 114 135 bng 15 250 50 0 empty empty X 17 7 0 10 -262144 -1 -1
;
#X floatatom 150 138 5 0 0 0 - - nbeats2-#1, f 5;
#X floatatom 183 138 5 0 0 0 - - len2-#1, f 5;
#X floatatom 216 138 5 0 0 0 - - rot2-#1, f 5;
#X floatatom 192 155 5 0 0 0 - - nbeats3-#1, f 5;
#X floatatom 224 156 5 0 0 0 - - len3-#1, f 5;
#X floatatom 257 156 5 0 0 0 - - rot3-#1, f 5;
#X obj 150 153 bng 15 250 50 0 empty empty empty 17 7 0 10 -262144
-1 -1;
#X obj 191 170 bng 15 250 50 0 empty empty empty 17 7 0 10 -262144
-1 -1;
#X msg 338 115 \; nbeats1-\$1 \$2 \; nbeats2-\$1 \$5 \; nbeats3-\$1
\$8 \; len1-\$1 \$3 \; len2-\$1 \$6 \; len3-\$1 \$9 \; rot1-\$1 \$4
\; rot2-\$1 \$7 \; rot3-\$1 \$10 \;;
#X msg 382 -3 4 16 2 4 16 2 4 16 2;
#X obj 253 431 s o3-\$0;
#X obj 160 432 s o2-\$0;
#X obj 68 430 s o1-\$0;
#X obj 98 9 r o1-\$0;
#X obj 131 29 r o2-\$0;
#X obj 171 45 r o3-\$0;
#X text 596 248 param list dump;
#X obj 338 82 prepend \$1;
#X obj 491 136 param_get nbeats1-\$1;
#X obj 509 157 param_get len1-\$1;
#X obj 531 178 param_get rot1-\$1;
#X obj 658 178 param_get rot2-\$1;
#X obj 776 179 param_get rot3-\$1;
#X obj 766 158 param_get len3-\$1;
#X obj 748 137 param_get nbeats3-\$1;
#X obj 618 137 param_get nbeats2-\$1;
#X obj 636 157 param_get len2-\$1;
#N canvas 323 379 953 379 rec-seteucl3 0;
#X obj 28 -25 prepend set;
#X obj 189 -29 prepend set;
#X obj 343 -30 prepend set;
#X obj 72 21 prepend set;
#X obj 231 15 prepend set;
#X obj 387 14 prepend set;
#X obj 122 64 prepend set;
#X obj 277 62 prepend set;
#X obj 430 55 prepend set;
#X obj 27 -2 outlet;
#X obj 72 43 outlet;
#X obj 122 86 outlet;
#X obj 189 -7 outlet;
#X obj 231 37 outlet;
#X obj 277 84 outlet;
#X obj 343 -8 outlet;
#X obj 387 35 outlet;
#X obj 430 77 outlet;
#X text 521 -16 this is ugly but until i find somthing significantly
better there is no point in replacing it;
#X obj 28 -48 r nbeats1-\$1;
#X obj 72 -1 r len1-\$1;
#X obj 122 42 r rot1-\$1;
#X obj 190 -50 r nbeats2-\$1;
#X obj 231 -7 r len2-\$1;
#X obj 277 40 r rot2-\$1;
#X obj 343 -51 r nbeats3-\$1;
#X obj 387 -8 r len3-\$1;
#X obj 430 34 r rot3-\$1;
#X connect 0 0 9 0;
#X connect 1 0 12 0;
#X connect 2 0 15 0;
#X connect 3 0 10 0;
#X connect 4 0 13 0;
#X connect 5 0 16 0;
#X connect 6 0 11 0;
#X connect 7 0 14 0;
#X connect 8 0 17 0;
#X connect 19 0 0 0;
#X connect 20 0 3 0;
#X connect 21 0 6 0;
#X connect 22 0 1 0;
#X connect 23 0 4 0;
#X connect 24 0 7 0;
#X connect 25 0 2 0;
#X connect 26 0 5 0;
#X connect 27 0 8 0;
#X restore 205 75 pd rec-seteucl3;
#X text 515 93 ack... want to expose their params to the preset system
but this will fuck up the scope... \$0 had to be replaced with \$1
;
#X text 210 103 nbeats/len/rot;
#X connect 0 0 43 0;
#X connect 0 1 1 0;
#X connect 1 0 42 0;
#X connect 1 1 2 0;
#X connect 2 0 41 0;
#X connect 3 0 0 0;
#X connect 4 0 14 0;
#X connect 5 0 0 1;
#X connect 6 0 1 1;
#X connect 7 0 2 1;
#X connect 8 0 0 2;
#X connect 9 0 1 2;
#X connect 10 0 2 2;
#X connect 11 0 2 3;
#X connect 12 0 1 3;
#X connect 13 0 0 3;
#X connect 14 0 5 1;
#X connect 14 1 6 1;
#X connect 14 2 7 1;
#X connect 15 0 16 0;
#X connect 16 0 8 1;
#X connect 16 1 9 1;
#X connect 16 2 10 1;
#X connect 17 0 18 0;
#X connect 18 0 13 1;
#X connect 18 1 12 1;
#X connect 18 2 11 1;
#X connect 22 0 5 0;
#X connect 22 1 8 0;
#X connect 22 2 13 0;
#X connect 22 3 6 0;
#X connect 22 4 9 0;
#X connect 22 5 12 0;
#X connect 22 6 7 0;
#X connect 22 7 10 0;
#X connect 22 8 11 0;
#X connect 25 0 48 0;
#X connect 30 0 19 0;
#X connect 37 0 20 0;
#X connect 38 0 21 0;
#X connect 40 0 48 0;
#X connect 44 0 30 0;
#X connect 45 0 37 0;
#X connect 46 0 38 0;
#X connect 48 0 39 0;
#X connect 49 0 26 0;
#X connect 50 0 26 0;
#X connect 51 0 26 0;
#X connect 52 0 26 0;
#X connect 53 0 26 0;
#X connect 54 0 26 0;
#X connect 55 0 26 0;
#X connect 56 0 26 0;
#X connect 57 0 26 0;
#X connect 58 0 27 0;
#X connect 58 1 28 0;
#X connect 58 2 29 0;
#X connect 58 3 31 0;
#X connect 58 4 32 0;
#X connect 58 5 33 0;
#X connect 58 6 34 0;
#X connect 58 7 35 0;
#X connect 58 8 36 0;
#X coords 0 -1 1 1 200 85 1 100 100;
