#N struct array-help-struct2 float x float y array z element-struct2
;
#N struct element-struct2 float x float y float w;
#N canvas 641 191 783 635 10;
#X obj 61 79 euclid 4 16 2;
#X floatatom 110 115 5 0 0 0 - - -, f 5;
#X floatatom 143 116 5 0 0 0 - - -, f 5;
#X floatatom 176 116 5 0 0 0 - - -, f 5;
#X obj 110 130 bng 15 250 50 0 empty empty empty 17 7 0 10 -262144
-1 -1;
#X obj 186 167 bng 15 250 50 0 empty empty empty 17 7 0 10 -262144
-1 -1;
#X obj 148 78 euclid 4 16 2;
#X floatatom 145 134 5 0 0 0 - - -, f 5;
#X floatatom 178 134 5 0 0 0 - - -, f 5;
#X floatatom 211 134 5 0 0 0 - - -, f 5;
#X obj 241 77 euclid 4 16 2;
#X floatatom 186 152 5 0 0 0 - - -, f 5;
#X floatatom 219 152 5 0 0 0 - - -, f 5;
#X floatatom 252 152 5 0 0 0 - - -, f 5;
#X obj 145 149 bng 15 250 50 0 empty empty empty 17 7 0 10 -262144
-1 -1;
#X obj 60 13 inlet;
#X obj 94 149 outlet;
#X obj 142 167 outlet;
#X obj 187 188 outlet;
#X obj 103 28 inlet;
#X obj 142 27 inlet;
#X obj 89 51 x 1;
#X obj 174 50 x 1;
#X obj 264 51 x 1;
#X obj 118 52 x 1;
#X obj 203 51 x 1;
#X obj 293 52 x 1;
#X obj 179 27 inlet;
#X obj 322 51 plus;
#X obj 231 51 plus;
#X obj 142 51 plus;
#X obj 25 192 pack 4 16 1 4 16 2 4 16 7;
#X obj 23 48 t f f;
#X obj 25 218 tabwrite \$1-eucl3;
#X obj 361 32 r \$0-ebeets1;
#X obj 440 32 r \$0-elen1;
#X obj 506 32 r \$0-erot1;
#X obj 409 70 r \$0-ebeets2;
#X obj 487 70 r \$0-elen2;
#X obj 554 70 r \$0-erot2;
#X obj 360 269 struct \$1-euclid float nbeats float plen float prot
;
#X obj 478 101 r \$0-ebeets3;
#X obj 556 101 r \$0-elen3;
#X obj 623 101 r \$0-erot3;
#X scalar array-help-struct2 76 33 \; -54 200 10 \; 138 -10 3 \; -32
26 0 \; 109 141 8 \; 272 19 0 \; \;;
#X text 353 301 struct \$1-eucl3 \$1-euclid strand1 \$1-euclid strand2
\$1-euclid strand3;
#X obj 48 319 array define \$1-eucl3;
#X connect 0 0 4 0;
#X connect 0 1 6 0;
#X connect 1 0 21 0;
#X connect 1 0 31 0;
#X connect 2 0 24 0;
#X connect 2 0 31 1;
#X connect 3 0 30 0;
#X connect 3 0 31 2;
#X connect 4 0 16 0;
#X connect 5 0 18 0;
#X connect 6 0 14 0;
#X connect 6 1 10 0;
#X connect 7 0 22 0;
#X connect 7 0 31 3;
#X connect 8 0 25 0;
#X connect 8 0 31 4;
#X connect 9 0 29 0;
#X connect 9 0 31 5;
#X connect 10 0 5 0;
#X connect 11 0 23 0;
#X connect 11 0 31 6;
#X connect 12 0 26 0;
#X connect 12 0 31 7;
#X connect 13 0 28 0;
#X connect 13 0 31 8;
#X connect 14 0 17 0;
#X connect 15 0 32 0;
#X connect 19 0 21 1;
#X connect 19 0 22 1;
#X connect 19 0 23 1;
#X connect 20 0 26 1;
#X connect 20 0 25 1;
#X connect 20 0 24 1;
#X connect 21 0 0 1;
#X connect 22 0 6 1;
#X connect 23 0 10 1;
#X connect 24 0 0 2;
#X connect 25 0 6 2;
#X connect 26 0 10 2;
#X connect 27 0 28 1;
#X connect 27 0 29 1;
#X connect 27 0 30 1;
#X connect 28 0 10 3;
#X connect 29 0 6 3;
#X connect 30 0 0 3;
#X connect 31 0 33 0;
#X connect 32 0 0 0;
#X connect 32 1 33 1;
#X connect 34 0 1 0;
#X connect 35 0 2 0;
#X connect 36 0 3 0;
#X connect 37 0 7 0;
#X connect 38 0 8 0;
#X connect 39 0 9 0;
#X connect 41 0 11 0;
#X connect 42 0 12 0;
#X connect 43 0 13 0;
#X coords 0 -1 1 1 200 85 1 100 100;
