#N canvas 55 113 1361 701 10;
#X text 102 -42 this abstraction will load any abstraction with one
inlet and one outlet and connect them;
#X obj 101 -109 inlet;
#X obj 98 491 outlet;
#X symbolatom 461 104 10 0 0 0 - - load_event_gn-#0, f 10;
#X text 614 -131 get last used event_r;
#X obj 580 265 prepend set;
#X msg 580 287 symbol;
#X text 101 8 this particular one is the template for event generators
or event_rs;
#X obj 101 -87 s \$0-in;
#X obj 97 463 r \$0-out;
#X obj 461 68 inlet;
#X text 407 103 event_r:;
#N canvas 178 451 900 400 sub-\$0 0;
#X obj 102 101 symbol;
#X coords 0 -1 1 1 425 200 1 100 100;
#X restore 100 124 pd sub-\$0 \$1;
#X obj 1005 303 list prepend obj 10 100;
#X msg 994 237 clear \, obj 10 0 r \$1-in;
#X obj 994 204 f \$0;
#X obj 826 350 f \$0;
#X msg 826 372 obj 10 200 s \$1-out \, connect 0 0 1 0 \, connect 1
0 2 0;
#X obj 816 136 t b a b;
#X obj 1005 334 list trim;
#X obj 814 105 r load_event_gn-\$0;
#X obj 879 496 s pd-sub-\$0;
#X connect 1 0 8 0;
#X connect 5 0 6 0;
#X connect 9 0 2 0;
#X connect 10 0 3 0;
#X connect 13 0 19 0;
#X connect 14 0 21 0;
#X connect 15 0 14 0;
#X connect 16 0 17 0;
#X connect 17 0 21 0;
#X connect 18 0 16 0;
#X connect 18 1 13 0;
#X connect 18 2 15 0;
#X connect 19 0 21 0;
#X connect 20 0 5 0;
#X connect 20 0 18 0;
#X coords 0 -1 1 1 425 225 1 100 100;
