#N canvas 290 116 1361 701 10;
#X text 102 -42 this abstraction will load any abstraction with one
inlet and one outlet and connect them;
#X obj 101 77 inlet;
#X obj 102 333 outlet;
#N canvas 178 451 900 400 sock-\$0 1;
#X obj 119 336 outlet;
#X obj 128 75 inlet;
#X obj 151 165 symbol;
#X connect 1 0 2 0;
#X connect 2 0 0 0;
#X coords 0 -1 1 1 425 200 2 100 100;
#X restore 101 124 pd sock-\$0 \$1;
#X obj 599 -64 r save;
#X obj 544 -88 loadbang;
#X symbolatom 460 105 10 0 0 0 - - load_event_r-#0, f 10;
#X msg 599 -42 write ../event_rs/event_r.txt;
#X obj 544 -66 t b b;
#X text 614 -131 get last used event_r;
#X text 374 105 load event_r:;
#X obj 581 188 r load_event_r-\$0;
#X obj 580 243 r load_event_r-\$0;
#N canvas 418 161 555 406 load_event_r 0;
#X obj -203 110 \$0;
#X obj -203 62 bng 15 250 50 0 empty empty empty 17 7 0 10 -262144
-1 -1;
#X obj -203 133 list append;
#X obj -203 155 list trim;
#X obj 41 141 t b b;
#X obj 41 166 \$0;
#X obj 41 118 bng 15 250 50 0 empty empty empty 17 7 0 10 -262144 -1
-1;
#X obj 41 189 list append;
#X obj 41 211 list trim;
#X obj -178 110 symbol;
#X text -253 133 create;
#X text -22 150 destroy;
#X text -317 13 destroy previous;
#X obj -204 13 inlet;
#X msg -203 179 \; pd-sock-\$1 obj 100 100 \$2 \; pd-sock-\$1 connect
0 0 2 0 \; pd-sock-\$1 connect 2 0 1 0;
#X obj 68 167 symbol;
#X obj -203 37 t b s b;
#X obj -203 85 t b b;
#X text -318 29 set next;
#X text -314 45 load next;
#X msg 41 235 \; pd-sock-\$1 find \$2 1 \, cut;
#X connect 0 0 2 0;
#X connect 1 0 17 0;
#X connect 2 0 3 0;
#X connect 3 0 14 0;
#X connect 4 0 5 0;
#X connect 4 1 15 0;
#X connect 5 0 7 0;
#X connect 6 0 4 0;
#X connect 7 0 8 0;
#X connect 8 0 20 0;
#X connect 9 0 2 1;
#X connect 13 0 16 0;
#X connect 15 0 7 1;
#X connect 16 0 1 0;
#X connect 16 1 9 1;
#X connect 16 1 15 1;
#X connect 16 2 6 0;
#X connect 17 0 0 0;
#X connect 17 1 9 0;
#X restore 652 265 pd load_event_r;
#X obj 544 40 text tolist event_r-\$0;
#X obj 581 212 text fromlist event_r-\$0;
#X obj 569 3 text define event_r-\$0;
#X obj 580 265 prepend set;
#X msg 580 287 symbol;
#X text 101 8 this particular one is the template for event generators
or event_rs;
#X msg 569 -18 read ../event_rs/event_r-\$1.txt;
#X obj 522 -39 symbol \$1;
#X obj 599 -89 bng 15 250 50 0 empty empty empty 17 7 0 10 -262144
-1 -1;
#X connect 4 0 7 0;
#X connect 5 0 8 0;
#X connect 7 0 16 0;
#X connect 8 0 14 0;
#X connect 8 1 21 0;
#X connect 11 0 15 0;
#X connect 12 0 13 0;
#X connect 12 0 17 0;
#X connect 14 0 6 0;
#X connect 17 0 18 0;
#X connect 20 0 16 0;
#X connect 21 0 20 0;
#X connect 22 0 8 0;
#X coords 0 -1 1 1 425 225 1 100 100;
