#N canvas 360 291 844 542 10;
#X floatatom 186 105 5 0 0 0 - - -, f 5;
#X floatatom 54 298 5 0 0 0 - - -, f 5;
#X floatatom 87 298 5 0 0 0 - - -, f 5;
#X floatatom 118 298 5 0 0 0 - - -, f 5;
#X obj 62 381 pack 20 20 0.4 50;
#X obj 109 147 vsl 15 128 0 2000 0 0 empty empty A 0 -9 0 10 -262144
-1 -1 0 1;
#X obj 128 145 vsl 15 128 0 127 0 0 empty empty D 0 -9 0 10 -262144
-1 -1 0 1;
#X obj 145 147 vsl 15 128 0 1 0 0 empty empty S 0 -9 0 10 -262144 -1
-1 0 1;
#X obj 164 147 vsl 15 128 0 2000 0 0 empty empty R 0 -9 0 10 -262144
-1 -1 0 1;
#X floatatom 151 298 5 0 0 0 - - -, f 5;
#X floatatom 187 163 5 0 0 0 - - -, f 5;
#X floatatom 187 221 5 0 0 0 - - -, f 5;
#X obj 78 347 t b a;
#X obj 117 349 t b a;
#X obj 164 350 t b a;
#X obj 75 323 f 20;
#X obj 36 342 f 20;
#X obj 120 322 f 0.4;
#X obj 158 321 f 50;
#X obj -6 409 fmsyn~, f 12;
#X obj -30 383 inlet;
#X obj 186 122 automator fm_detune;
#X obj 187 181 automator fm_rat;
#X obj 187 239 automator fm_mod;
#X obj 186 84 inlet;
#X obj 224 84 inlet;
#X obj 260 84 inlet;
#X obj -6 432 outlet~;
#X obj 43 432 outlet~;
#X connect 0 0 21 0;
#X connect 1 0 16 0;
#X connect 2 0 15 0;
#X connect 3 0 17 0;
#X connect 4 0 19 4;
#X connect 5 0 1 0;
#X connect 6 0 2 0;
#X connect 7 0 3 0;
#X connect 8 0 9 0;
#X connect 9 0 18 0;
#X connect 10 0 22 0;
#X connect 11 0 23 0;
#X connect 12 0 16 0;
#X connect 12 1 4 1;
#X connect 13 0 15 0;
#X connect 13 1 4 2;
#X connect 14 0 17 0;
#X connect 14 1 4 3;
#X connect 15 0 12 0;
#X connect 16 0 4 0;
#X connect 17 0 13 0;
#X connect 18 0 14 0;
#X connect 19 0 27 0;
#X connect 19 1 28 0;
#X connect 20 0 19 0;
#X connect 21 0 19 1;
#X connect 22 0 19 2;
#X connect 23 0 19 3;
#X connect 24 0 0 0;
#X connect 25 0 10 0;
#X connect 26 0 11 0;
#X coords 0 -1 1 1 325 200 1 100 100;
