#N canvas 279 116 829 582 10;
#X obj 86 278 fmvox~, f 15;
#X obj 87 177 poly 6 1, f 10;
#X obj 87 203 pack 0 0 0;
#X obj 103 310 fmvox~, f 16;
#X obj 121 339 fmvox~, f 16;
#X obj 136 369 fmvox~, f 17;
#X obj 155 408 fmvox~, f 16;
#X obj 172 435 fmvox~, f 16;
#X obj 87 148 inlet;
#X obj 215 146 inlet;
#X obj 257 145 inlet;
#X obj 300 145 inlet;
#X obj 341 145 inlet;
#X obj 87 228 route 1 2 3 4 5 6;
#X obj 38 603 outlet~;
#X obj 124 602 outlet~;
#N canvas 0 22 450 300 softclip~ 0;
#X obj 167 97 inlet~;
#X obj 167 163 outlet~;
#X obj 257 96 inlet~;
#X obj 257 162 outlet~;
#X obj 337 19 inlet;
#X obj 257 118 *~ 1;
#X obj 167 119 *~ 1;
#X obj 339 63 + 1;
#X obj 337 42 * 10;
#X obj 166 141 expr~ tanh($v1);
#X obj 268 139 expr~ tanh($v1);
#X connect 0 0 6 0;
#X connect 2 0 5 0;
#X connect 4 0 8 0;
#X connect 5 0 10 0;
#X connect 6 0 9 0;
#X connect 7 0 5 1;
#X connect 7 0 6 1;
#X connect 8 0 7 0;
#X connect 9 0 1 0;
#X connect 10 0 3 0;
#X restore 38 560 pd softclip~;
#X obj 54 453 thru~;
#X obj 129 463 thru~;
#X floatatom 210 530 5 0 0 0 - - -, f 5;
#X obj 39 512 vcf~;
#X obj 76 513 vcf~;
#X obj 391 454 sig~;
#X text 381 398 center frequency;
#X text 509 438 q;
#X floatatom 391 430 5 0 0 0 - - -, f 5;
#X floatatom 488 457 5 0 0 0 - - -, f 5;
#X connect 0 0 17 0;
#X connect 0 1 18 0;
#X connect 1 0 2 0;
#X connect 1 1 2 1;
#X connect 1 2 2 2;
#X connect 2 0 13 0;
#X connect 3 0 17 0;
#X connect 3 1 18 0;
#X connect 4 0 17 0;
#X connect 4 1 18 0;
#X connect 5 0 17 0;
#X connect 5 1 18 0;
#X connect 6 0 17 0;
#X connect 6 1 18 0;
#X connect 7 0 17 0;
#X connect 7 1 18 0;
#X connect 8 0 1 0;
#X connect 9 0 0 1;
#X connect 9 0 3 1;
#X connect 9 0 4 1;
#X connect 9 0 5 1;
#X connect 9 0 6 1;
#X connect 9 0 7 1;
#X connect 10 0 0 2;
#X connect 10 0 3 2;
#X connect 10 0 4 2;
#X connect 10 0 5 2;
#X connect 10 0 6 2;
#X connect 10 0 7 2;
#X connect 11 0 0 3;
#X connect 11 0 3 3;
#X connect 11 0 4 3;
#X connect 11 0 5 3;
#X connect 11 0 6 3;
#X connect 11 0 7 3;
#X connect 12 0 0 4;
#X connect 12 0 3 4;
#X connect 12 0 4 4;
#X connect 12 0 5 4;
#X connect 12 0 6 4;
#X connect 12 0 7 4;
#X connect 13 0 0 0;
#X connect 13 1 3 0;
#X connect 13 2 4 0;
#X connect 13 3 5 0;
#X connect 13 4 6 0;
#X connect 13 5 7 0;
#X connect 16 0 14 0;
#X connect 16 1 15 0;
#X connect 17 0 20 0;
#X connect 18 0 21 0;
#X connect 19 0 16 2;
#X connect 20 0 16 0;
#X connect 21 0 16 1;
#X connect 22 0 20 1;
#X connect 22 0 21 1;
#X connect 25 0 22 0;
#X connect 26 0 20 2;
#X connect 26 0 21 2;
