#N canvas 195 72 1073 704 10;
#X obj 39 395 osc~;
#X obj 39 473 osc~;
#X obj 37 546 *~;
#X obj 39 451 +~;
#X obj 38 323 +;
#X obj 116 323 -;
#X obj 38 107 inlet;
#X obj 117 107 inlet;
#X obj 82 107 inlet;
#X obj 100 393 osc~;
#X obj 100 471 osc~;
#X obj 100 544 *~;
#X obj 100 449 +~;
#N canvas 575 235 643 348 both 0;
#X obj 103 104 inlet;
#X obj 103 126 t f b;
#X obj 103 162 f;
#X obj 103 200 outlet;
#X obj 149 104 inlet;
#X obj 156 163 f;
#X obj 156 201 outlet;
#X obj 149 126 t b f;
#X text 239 137 this is a helper abst to make both inlets of a * \,
+ \, - \, / \, % \, pack ect... \, object "hot";
#X connect 0 0 1 0;
#X connect 1 0 2 0;
#X connect 1 1 5 0;
#X connect 2 0 3 0;
#X connect 4 0 7 0;
#X connect 5 0 6 0;
#X connect 7 0 2 0;
#X connect 7 1 5 0;
#X restore 38 302 pd both;
#N canvas 575 235 643 348 both 0;
#X obj 103 104 inlet;
#X obj 103 126 t f b;
#X obj 103 162 f;
#X obj 103 200 outlet;
#X obj 149 104 inlet;
#X obj 156 163 f;
#X obj 156 201 outlet;
#X obj 149 126 t b f;
#X text 239 137 this is a helper abst to make both inlets of a * \,
+ \, - \, / \, % \, pack ect... \, object "hot";
#X connect 0 0 1 0;
#X connect 1 0 2 0;
#X connect 1 1 5 0;
#X connect 2 0 3 0;
#X connect 4 0 7 0;
#X connect 5 0 6 0;
#X connect 7 0 2 0;
#X connect 7 1 5 0;
#X restore 116 302 pd both;
#N canvas 575 235 643 348 both 0;
#X obj 103 104 inlet;
#X obj 103 126 t f b;
#X obj 103 162 f;
#X obj 103 200 outlet;
#X obj 149 104 inlet;
#X obj 156 163 f;
#X obj 156 201 outlet;
#X obj 149 126 t b f;
#X text 239 137 this is a helper abst to make both inlets of a * \,
+ \, - \, / \, % \, pack ect... \, object "hot";
#X connect 0 0 1 0;
#X connect 1 0 2 0;
#X connect 1 1 5 0;
#X connect 2 0 3 0;
#X connect 4 0 7 0;
#X connect 5 0 6 0;
#X connect 7 0 2 0;
#X connect 7 1 5 0;
#X restore 39 350 pd both;
#X obj 39 371 *;
#N canvas 575 235 643 348 both 0;
#X obj 103 104 inlet;
#X obj 103 126 t f b;
#X obj 103 162 f;
#X obj 103 200 outlet;
#X obj 149 104 inlet;
#X obj 156 163 f;
#X obj 156 201 outlet;
#X obj 149 126 t b f;
#X text 239 137 this is a helper abst to make both inlets of a * \,
+ \, - \, / \, % \, pack ect... \, object "hot";
#X connect 0 0 1 0;
#X connect 1 0 2 0;
#X connect 1 1 5 0;
#X connect 2 0 3 0;
#X connect 4 0 7 0;
#X connect 5 0 6 0;
#X connect 7 0 2 0;
#X connect 7 1 5 0;
#X restore 100 351 pd both;
#X obj 100 372 *;
#X obj 141 490 + 0.25;
#X obj 38 142 unpack;
#X obj 225 351 *~;
#X obj 225 373 *~;
#X obj 258 104 inlet;
#X obj 37 622 outlet~;
#X obj 100 623 outlet~;
#X obj 38 208 mtof;
#X obj 152 107 inlet;
#X obj 39 422 *~ 1;
#X obj 100 415 *~ 1;
#X obj 143 443 loadbang;
#X obj 142 466 0;
#X obj 225 306 xadsr~;
#X obj 278 307 > 0;
#X obj 225 246 t f f;
#X obj 266 401 switch~;
#X obj 278 330 sel 1;
#X obj 266 374 0;
#X obj 294 375 1;
#X connect 0 0 28 0;
#X connect 1 0 2 0;
#X connect 2 0 24 0;
#X connect 3 0 1 0;
#X connect 4 0 3 1;
#X connect 4 0 17 0;
#X connect 5 0 12 1;
#X connect 5 0 15 0;
#X connect 6 0 20 0;
#X connect 7 0 15 1;
#X connect 7 0 17 1;
#X connect 8 0 14 1;
#X connect 8 0 13 1;
#X connect 9 0 29 0;
#X connect 10 0 11 0;
#X connect 11 0 25 0;
#X connect 12 0 10 0;
#X connect 13 0 4 0;
#X connect 13 1 4 1;
#X connect 14 0 5 0;
#X connect 14 1 5 1;
#X connect 15 0 16 0;
#X connect 15 1 16 1;
#X connect 16 0 0 0;
#X connect 17 0 18 0;
#X connect 17 1 18 1;
#X connect 18 0 9 0;
#X connect 19 0 10 1;
#X connect 20 0 26 0;
#X connect 20 1 34 0;
#X connect 21 0 22 0;
#X connect 21 0 22 1;
#X connect 22 0 11 1;
#X connect 22 0 2 1;
#X connect 23 0 32 1;
#X connect 26 0 14 0;
#X connect 26 0 13 0;
#X connect 27 0 28 1;
#X connect 27 0 29 1;
#X connect 28 0 3 0;
#X connect 29 0 12 0;
#X connect 30 0 31 0;
#X connect 31 0 19 0;
#X connect 31 0 1 1;
#X connect 32 0 21 0;
#X connect 32 0 21 1;
#X connect 32 1 37 0;
#X connect 33 0 36 0;
#X connect 34 0 32 0;
#X connect 34 1 33 0;
#X connect 36 0 38 0;
#X connect 36 0 31 0;
#X connect 37 0 35 0;
#X connect 38 0 35 0;
