#N canvas 154 44 1073 704 10;
#X obj 42 395 osc~;
#X obj 42 439 osc~;
#X obj 42 512 *~;
#X obj 42 417 +~;
#X obj 41 323 +;
#X obj 116 323 -;
#X obj 43 94 inlet;
#X obj 142 93 inlet;
#X obj 82 94 inlet;
#X obj 100 393 osc~;
#X obj 100 437 osc~;
#X obj 100 510 *~;
#X obj 100 415 +~;
#N canvas 575 235 643 348 both 0;
#X obj 103 104 inlet;
#X obj 103 126 t f b;
#X obj 103 162 f;
#X obj 103 200 outlet;
#X obj 149 104 inlet;
#X obj 156 163 f;
#X obj 156 201 outlet;
#X obj 149 126 t b f;
#X text 239 137 this is a helper abst to make both inlets of a * \,
+ \, - \, / \, % \, pack ect... \, object "hot";
#X connect 0 0 1 0;
#X connect 1 0 2 0;
#X connect 1 1 5 0;
#X connect 2 0 3 0;
#X connect 4 0 7 0;
#X connect 5 0 6 0;
#X connect 7 0 2 0;
#X connect 7 1 5 0;
#X restore 41 302 pd both;
#N canvas 575 235 643 348 both 0;
#X obj 103 104 inlet;
#X obj 103 126 t f b;
#X obj 103 162 f;
#X obj 103 200 outlet;
#X obj 149 104 inlet;
#X obj 156 163 f;
#X obj 156 201 outlet;
#X obj 149 126 t b f;
#X text 239 137 this is a helper abst to make both inlets of a * \,
+ \, - \, / \, % \, pack ect... \, object "hot";
#X connect 0 0 1 0;
#X connect 1 0 2 0;
#X connect 1 1 5 0;
#X connect 2 0 3 0;
#X connect 4 0 7 0;
#X connect 5 0 6 0;
#X connect 7 0 2 0;
#X connect 7 1 5 0;
#X restore 116 302 pd both;
#N canvas 575 235 643 348 both 0;
#X obj 103 104 inlet;
#X obj 103 126 t f b;
#X obj 103 162 f;
#X obj 103 200 outlet;
#X obj 149 104 inlet;
#X obj 156 163 f;
#X obj 156 201 outlet;
#X obj 149 126 t b f;
#X text 239 137 this is a helper abst to make both inlets of a * \,
+ \, - \, / \, % \, pack ect... \, object "hot";
#X connect 0 0 1 0;
#X connect 1 0 2 0;
#X connect 1 1 5 0;
#X connect 2 0 3 0;
#X connect 4 0 7 0;
#X connect 5 0 6 0;
#X connect 7 0 2 0;
#X connect 7 1 5 0;
#X restore 42 350 pd both;
#X obj 42 371 *;
#N canvas 575 235 643 348 both 0;
#X obj 103 104 inlet;
#X obj 103 126 t f b;
#X obj 103 162 f;
#X obj 103 200 outlet;
#X obj 149 104 inlet;
#X obj 156 163 f;
#X obj 156 201 outlet;
#X obj 149 126 t b f;
#X text 239 137 this is a helper abst to make both inlets of a * \,
+ \, - \, / \, % \, pack ect... \, object "hot";
#X connect 0 0 1 0;
#X connect 1 0 2 0;
#X connect 1 1 5 0;
#X connect 2 0 3 0;
#X connect 4 0 7 0;
#X connect 5 0 6 0;
#X connect 7 0 2 0;
#X connect 7 1 5 0;
#X restore 100 351 pd both;
#X obj 100 372 *;
#X obj 181 93 inlet;
#X obj 183 375 + 0.25;
#X obj 42 121 unpack;
#X obj 241 392 line~;
#X obj 241 202 / 127;
#X obj 241 414 *~;
#X obj 241 436 *~;
#X obj 241 228 sel 0;
#X msg 276 302 0 \, \$1 \$2 \, \$4 \$3;
#X msg 225 303 0 \$1;
#X obj 226 276 f 1000;
#X obj 283 94 inlet;
#X msg 91 50 64 0;
#X obj 57 553 dac~;
#X obj 43 588 outlet~;
#X obj 100 589 outlet~;
#X floatatom 191 224 5 0 0 0 - - -, f 5;
#X obj 296 543 vu 15 120 empty empty -1 -8 0 10 -66577 -1 1 0;
#X obj 261 478 snapshot~;
#X floatatom 259 501 5 0 0 0 - - -, f 5;
#X obj 398 358 tgl 15 0 empty empty empty 17 7 0 10 -262144 -1 -1 1
1;
#X obj 387 406 metro 100;
#X floatatom 137 50 5 0 0 0 - - -, f 5;
#X floatatom 175 51 5 0 0 0 - - -, f 5;
#X floatatom 214 51 5 0 0 0 - - -, f 5;
#X obj 38 208 mtof;
#X msg 37 49 64 127;
#X obj 276 276 pack 0 50 300 0.5;
#X obj 283 142 unpack 50 300 0.5 1000;
#X connect 0 0 3 0;
#X connect 1 0 2 0;
#X connect 2 0 32 0;
#X connect 2 0 33 0;
#X connect 3 0 1 0;
#X connect 4 0 3 1;
#X connect 4 0 17 0;
#X connect 5 0 12 1;
#X connect 5 0 15 0;
#X connect 6 0 21 0;
#X connect 7 0 15 1;
#X connect 7 0 17 1;
#X connect 8 0 14 1;
#X connect 8 0 13 1;
#X connect 9 0 12 0;
#X connect 10 0 11 0;
#X connect 11 0 32 1;
#X connect 11 0 34 0;
#X connect 12 0 10 0;
#X connect 13 0 4 0;
#X connect 13 1 4 1;
#X connect 14 0 5 0;
#X connect 14 1 5 1;
#X connect 15 0 16 0;
#X connect 15 1 16 1;
#X connect 16 0 0 0;
#X connect 17 0 18 0;
#X connect 17 1 18 1;
#X connect 18 0 9 0;
#X connect 19 0 1 1;
#X connect 19 0 20 0;
#X connect 20 0 10 1;
#X connect 21 0 44 0;
#X connect 21 1 23 0;
#X connect 22 0 24 0;
#X connect 22 0 24 1;
#X connect 23 0 26 0;
#X connect 23 0 35 0;
#X connect 24 0 25 0;
#X connect 24 0 25 1;
#X connect 25 0 37 0;
#X connect 25 0 11 1;
#X connect 25 0 2 1;
#X connect 26 0 29 0;
#X connect 26 1 46 0;
#X connect 27 0 22 0;
#X connect 28 0 22 0;
#X connect 29 0 28 0;
#X connect 30 0 47 0;
#X connect 31 0 21 0;
#X connect 37 0 38 0;
#X connect 39 0 40 0;
#X connect 40 0 37 0;
#X connect 41 0 13 1;
#X connect 41 0 14 1;
#X connect 42 0 15 1;
#X connect 42 0 17 1;
#X connect 43 0 10 1;
#X connect 43 0 1 1;
#X connect 44 0 14 0;
#X connect 44 0 13 0;
#X connect 45 0 21 0;
#X connect 46 0 27 0;
#X connect 47 0 46 1;
#X connect 47 1 46 2;
#X connect 47 2 46 3;
#X connect 47 3 29 1;
