#N canvas 435 22 878 658 10;
#X text 149 -94 this abstraction will load any abstraction with one
inlet and one outlet and connect them;
#X obj 101 79 inlet;
#X obj 101 305 outlet;
#X obj 750 -34 list trim;
#X obj 750 -56 list append;
#X text 630 -96 how to reference jut the subpatcher;
#X obj 559 44 prepend set;
#X msg 559 66 /Users/david/Desktop/PureData/Projects/Template/abstractions/eucl3.pd
;
#N canvas 20 366 900 400 sock-\$0 1;
#X obj 99 79 inlet;
#X obj 100 305 outlet;
#X coords 0 -1 1 1 425 200 1 100 100;
#X restore 101 101 pd sock-\$0 \$1;
#X obj 559 23 openpanel;
#X obj 498 -28 bng 15 250 50 0 empty empty empty 17 7 0 10 -262144
-1 -1;
#X obj 825 -57 r save;
#X msg 559 -1 symbol ../;
#X obj 100 359 t b b;
#X obj 100 384 \$0;
#X obj 127 384 symbol float;
#X obj 100 336 bng 15 250 50 0 empty empty empty 17 7 0 10 -262144
-1 -1;
#X obj 100 407 list append;
#X obj 100 429 list trim;
#X msg 100 453 \; pd-sock-\$1 obj 100 100 \$2 \; pd-sock-\$1 connect
0 0 2 0 \; pd-sock-\$1 connect 2 0 1 0;
#X obj 283 359 t b b;
#X obj 283 384 \$0;
#X obj 310 385 symbol float;
#X obj 283 336 bng 15 250 50 0 empty empty empty 17 7 0 10 -262144
-1 -1;
#X obj 283 407 list append;
#X obj 283 429 list trim;
#X msg 283 453 \; pd-sock-\$1 find \$2 1 \, cut;
#X connect 1 0 8 0;
#X connect 4 0 3 0;
#X connect 6 0 7 0;
#X connect 8 0 2 0;
#X connect 9 0 6 0;
#X connect 10 0 9 0;
#X connect 12 0 9 0;
#X connect 13 0 14 0;
#X connect 13 1 15 0;
#X connect 14 0 17 0;
#X connect 15 0 17 1;
#X connect 16 0 13 0;
#X connect 17 0 18 0;
#X connect 18 0 19 0;
#X connect 20 0 21 0;
#X connect 20 1 22 0;
#X connect 21 0 24 0;
#X connect 22 0 24 1;
#X connect 23 0 20 0;
#X connect 24 0 25 0;
#X connect 25 0 26 0;
#X coords 0 -1 1 1 425 200 1 100 100;
