#N canvas 489 31 878 658 10;
#X obj 573 -222 loadbang;
#X obj 547 -5 symbol;
#X obj 593 -5 symbol;
#X text 149 -94 this abstraction will load any abstraction with one
inlet and one outlet and connect them;
#X obj 573 -197 symbol notegen_\$1-\$0;
#X obj 547 -25 bng 15 250 50 0 empty empty empty 17 7 0 10 -262144
-1 -1;
#X obj 101 79 inlet;
#X obj 100 307 outlet;
#X msg 548 97 \; \$1 obj 60 60 \$2 \; \$1 connect 0 0 6 0 \; \$1 connect
6 1 7 1 \;;
#X obj 548 48 list trim;
#X msg 281 58 add2 \$1 obj 100 100 \$2;
#X msg 93 -138 add2 connect;
#X msg 653 7 float;
#X msg 425 58 addsemi;
#X obj 407 -43 t b b a b;
#X msg 247 57 set;
#X obj 548 26 list append;
#N canvas 64 268 900 400 socket 1;
#X obj 102 76 inlet;
#X obj 101 307 outlet;
#X obj 541 60 inlet;
#X msg 541 82;
#X connect 2 0 3 0;
#X coords 0 -1 1 1 425 200 1 100 100;
#X restore 101 100 pd socket;
#X obj 282 -162 namecanvas notegen_\$1-\$0;
#X msg 76 -5 \; \$1::pd-socket obj 100 100 float \; \$1::pd-socket
;
#X msg 854 -97 \$1::pd-socket;
#X text 630 -96 how to reference jut the subpatcher;
#X connect 0 0 4 0;
#X connect 1 0 16 0;
#X connect 4 0 1 1;
#X connect 4 0 2 1;
#X connect 5 0 1 0;
#X connect 6 0 17 0;
#X connect 9 0 8 0;
#X connect 10 0 17 1;
#X connect 12 0 16 1;
#X connect 13 0 17 1;
#X connect 15 0 17 1;
#X connect 16 0 9 0;
#X connect 17 0 7 0;
#X coords 0 -1 1 1 425 200 1 100 100;
