#N canvas 232 286 694 322 10;
#X obj 149 36 r \$1;
#X obj 149 58 list prepend set;
#X obj 149 80 list trim;
#X obj 256 151 outlet;
#X floatatom 149 102 5 0 0 0 #1 - #1, f 5;
#X obj 256 126 r \$1;
#X obj 331 229 s \$2-param;
#X text 95 7 parameter send \, set \, and out;
#X obj 331 162 r \$1;
#X obj 331 183 list prepend \$1;
#X obj 331 205 list trim;
#X text 332 135 send name and value to \$2 preset object;
#X connect 0 0 1 0;
#X connect 1 0 2 0;
#X connect 2 0 4 0;
#X connect 5 0 3 0;
#X connect 8 0 9 0;
#X connect 9 0 10 0;
#X connect 10 0 6 0;
#X coords 0 -1 1 1 85 20 2 100 100;
