#N canvas 0 22 450 300 10;
#X obj 115 112 t f b;
#X obj 154 112 t b f;
#X obj 115 62 inlet;
#X obj 154 62 inlet;
#X obj 119 224 outlet;
#X text 46 19 multiplication where both inlets are "hot";
#X obj 122 159 i 1;
#X obj 146 159 i \$1;
#X obj 130 185 + \$1;
#X connect 0 0 6 0;
#X connect 0 1 7 0;
#X connect 1 0 6 0;
#X connect 1 1 7 0;
#X connect 2 0 0 0;
#X connect 3 0 1 0;
#X connect 6 0 8 0;
#X connect 7 0 8 1;
#X connect 8 0 4 0;
