#N canvas 224 123 878 383 10;
#X msg 404 141 read ../data/state_data/\$1;
#X obj 404 118 symbol presets-\$1;
#X obj 575 117 symbol presets-\$1;
#X msg 575 140 write ../data/state_data/\$1;
#X obj 103 134 bng 15 250 50 0 \$0-write empty write 17 7 0 10 -262144
-1 -1;
#X obj 103 117 bng 15 250 50 0 \$0-read empty read 17 7 0 10 -262144
-1 -1;
#X obj 340 223 text define pre-\$0;
#X obj 416 305 inlet;
#X obj 168 310 inlet;
#X text 106 309 preset #;
#X obj 289 452 s pnum-\$0;
#X obj 414 449 text set pre-\$0;
#X obj 404 94 r \$0-read;
#X obj 286 120 savepanel;
#X obj 103 151 bng 15 250 50 0 \$0-save_as empty save_as 17 7 0 10
-262144 -1 -1;
#X obj 287 99 r \$0-save_as;
#X obj 285 143 list prepend write;
#X obj 285 165 list trim;
#X obj 169 123 openpanel;
#X obj 103 168 bng 15 250 50 0 \$0-open empty open 17 7 0 10 -262144
-1 -1;
#X obj 168 145 list prepend write;
#X obj 168 167 list trim;
#X obj 169 103 r \$0-open;
#X obj 103 81 loadbang;
#X obj 575 91 r \$0-write;
#X obj 134 627 r fooba;
#X obj 135 671 list trim;
#X obj 135 649 list prepend set;
#X obj 245 669 list trim;
#X obj 245 647 list prepend set;
#X obj 244 625 r bafoo;
#N canvas 0 22 480 378 preset_recall 0;
#X msg -453 134 line 0;
#X msg -472 111 auto;
#X obj -472 183 list split 1;
#X obj -472 294 list append;
#X obj -440 207 list trim;
#X obj -360 203 r pnum-\$0;
#X text -572 88 recall presets;
#X obj -472 161 text sequence pre-\$0;
#X obj -440 235 list split;
#X obj -412 263 list split 1;
#X text -354 247 comment;
#X obj -472 66 inlet;
#X obj -471 318 outlet;
#X text -570 320 out: name & val;
#X obj -472 89 t b b f;
#X connect 0 0 7 0;
#X connect 1 0 7 0;
#X connect 2 0 3 0;
#X connect 2 1 4 0;
#X connect 3 0 12 0;
#X connect 4 0 8 0;
#X connect 7 0 2 0;
#X connect 8 1 9 0;
#X connect 9 0 3 1;
#X connect 11 0 14 0;
#X connect 14 0 1 0;
#X connect 14 1 0 0;
#X connect 14 2 8 1;
#X restore 168 428 pd preset_recall;
#X msg 135 693 332;
#X msg 245 691 334;
#X msg 204 310 0;
#N canvas 0 22 450 300 preset_store 1;
#X obj 104 32 inlet;
#X obj 205 175 moses 0;
#X obj 205 122 list split 1;
#X obj 619 491 list length;
#X obj 619 516 -;
#X obj 619 538 * -1;
#X obj 205 150 text search pre-\$0;
#X text 88 244 append at the end;
#X text 5 208 if there is already a stored param:;
#X obj 418 278 text get pre-\$0;
#X obj 418 304 list split 1;
#X obj 451 332 list split 1;
#X obj 521 302 r pnum-\$0;
#X obj 542 656 list append;
#X obj 618 563 until;
#X msg 618 615 add2 \$1;
#X msg 578 627;
#X obj 618 591 list;
#X obj 565 457 t a b b a;
#X msg 564 535 set;
#X obj 96 706 list;
#X obj 362 571 list append;
#X obj 243 436 until;
#X msg 243 488 add2 \$1;
#X msg 227 532;
#X obj 243 464 list;
#X msg 213 437 set;
#X obj 281 374 r pnum-\$0;
#X obj 267 402 f;
#X obj 223 348 t a b b b;
#X obj 193 564 list append;
#X obj 201 266 list;
#X obj 104 61 t b a a;
#X msg 265 268 1e+06;
#X obj 419 240 t f f;
#X obj 481 375 list split 1;
#X obj 472 444 list;
#X obj 471 474 list append;
#X obj 415 506 list append;
#X text 304 240 else replace/pad;
#X obj 203 241 t b b b;
#X obj 200 293 list split 1;
#X obj 235 267 1;
#X obj 505 399 t b a;
#X text 415 372 replace;
#X text 537 458 pad;
#X obj 99 730 outlet;
#X obj 168 730 outlet;
#X connect 0 0 32 0;
#X connect 1 0 40 0;
#X connect 1 1 34 0;
#X connect 2 0 6 0;
#X connect 2 1 17 1;
#X connect 2 1 25 1;
#X connect 2 1 36 1;
#X connect 3 0 4 0;
#X connect 4 0 5 0;
#X connect 5 0 14 0;
#X connect 6 0 1 0;
#X connect 9 0 10 0;
#X connect 10 0 21 0;
#X connect 10 1 11 0;
#X connect 11 0 38 0;
#X connect 11 1 35 0;
#X connect 11 2 18 0;
#X connect 12 0 11 1;
#X connect 12 0 4 1;
#X connect 13 0 21 1;
#X connect 14 0 17 0;
#X connect 15 0 16 0;
#X connect 16 0 13 1;
#X connect 17 0 15 0;
#X connect 18 0 13 0;
#X connect 18 1 19 0;
#X connect 18 2 16 0;
#X connect 18 3 3 0;
#X connect 19 0 16 0;
#X connect 20 0 46 0;
#X connect 21 0 20 1;
#X connect 22 0 25 0;
#X connect 23 0 24 0;
#X connect 24 0 30 1;
#X connect 25 0 23 0;
#X connect 26 0 24 0;
#X connect 27 0 28 1;
#X connect 28 0 22 0;
#X connect 29 1 26 0;
#X connect 29 2 24 0;
#X connect 29 3 28 0;
#X connect 30 0 20 1;
#X connect 31 0 41 0;
#X connect 32 0 20 0;
#X connect 32 1 2 0;
#X connect 32 2 31 1;
#X connect 33 0 47 0;
#X connect 34 0 9 0;
#X connect 34 1 47 0;
#X connect 35 1 43 0;
#X connect 36 0 37 0;
#X connect 37 0 38 1;
#X connect 38 0 21 1;
#X connect 40 0 31 0;
#X connect 40 1 42 0;
#X connect 40 2 33 0;
#X connect 41 0 30 0;
#X connect 41 1 29 0;
#X connect 42 0 41 1;
#X connect 43 0 36 0;
#X connect 43 1 37 1;
#X restore 414 418 pd preset_store;
#X text 132 591 testing;
#X obj 660 303 inlet;
#X text 578 305 r \, w \, s \, o;
#X obj 660 326 route r w s o;
#X obj 660 399 s \$0-read;
#X obj 678 424 s \$0-write;
#X obj 716 476 s \$0-open;
#X obj 697 451 s \$0-save_as;
#X obj 658 356 bng 15 250 50 0 empty empty empty 17 7 0 10 -262144
-1 -1;
#X obj 676 358 bng 15 250 50 0 empty empty empty 17 7 0 10 -262144
-1 -1;
#X obj 694 359 bng 15 250 50 0 empty empty empty 17 7 0 10 -262144
-1 -1;
#X obj 716 359 bng 15 250 50 0 empty empty empty 17 7 0 10 -262144
-1 -1;
#X msg 168 458 \; \$1 \$2;
#X text 294 305 param name & value;
#X msg 454 305 fooba 32;
#X obj 288 430 f 0;
#X obj 531 399 prepend set;
#X msg 531 421;
#X obj 415 359 t a b;
#X connect 0 0 6 0;
#X connect 1 0 0 0;
#X connect 2 0 3 0;
#X connect 3 0 6 0;
#X connect 7 0 54 0;
#X connect 8 0 31 0;
#X connect 8 0 51 0;
#X connect 12 0 1 0;
#X connect 13 0 16 0;
#X connect 15 0 13 0;
#X connect 16 0 17 0;
#X connect 17 0 6 0;
#X connect 18 0 20 0;
#X connect 20 0 21 0;
#X connect 21 0 6 0;
#X connect 22 0 18 0;
#X connect 23 0 5 0;
#X connect 24 0 2 0;
#X connect 25 0 27 0;
#X connect 26 0 32 0;
#X connect 27 0 26 0;
#X connect 28 0 33 0;
#X connect 29 0 28 0;
#X connect 30 0 29 0;
#X connect 31 0 48 0;
#X connect 34 0 31 0;
#X connect 35 0 11 0;
#X connect 35 1 11 1;
#X connect 37 0 39 0;
#X connect 39 0 44 0;
#X connect 39 1 45 0;
#X connect 39 2 46 0;
#X connect 39 3 47 0;
#X connect 44 0 40 0;
#X connect 45 0 41 0;
#X connect 46 0 43 0;
#X connect 47 0 42 0;
#X connect 51 0 10 0;
#X connect 52 0 53 0;
#X connect 54 0 35 0;
#X connect 54 1 51 0;
#X coords 0 -1 1 1 65 90 1 100 100;
