#N canvas 342 185 850 551 10;
#X obj 276 58 bng 15 250 50 0 empty restart restart 17 7 0 10 -262144
-1 -1;
#X obj 247 81 bng 15 250 50 0 global_reset empty empty 17 7 0 10 -262144
-1 -1;
#X obj 103 165 hsl 320 20 0 64 0 0 empty empty empty -2 -8 0 10 -128992
-1 -1 0 1;
#X obj 179 80 s countoff;
#X obj 179 58 xcounter 1 64 1;
#X obj 179 0 bpulse~;
#X obj 231 3 bng 15 250 50 0 empty global_reset empty 17 7 0 10 -262144
-1 -1;
#X obj 220 -25 r bpm;
#X obj 179 -25 r stst;
#X obj 257 -25 r swing;
#X obj 244 119 param bstart global;
#X obj 244 141 param length global;
#X obj 334 118 param stepsize global;
#X obj 155 119 param bpm global;
#X obj 155 142 param swing global;
#X obj 135 120 tgl 15 0 stst empty start -32 7 0 10 -262144 -1 -1 0
1;
#X obj 135 58 keyup;
#X obj 135 82 sel 9;
#X obj 63 82 prepend set;
#X obj 63 58 r stst;
#X obj 314 25 r stepsize;
#X obj 202 28 r swing;
#X obj 258 25 r length;
#X obj 91 5 bng 15 250 50 0 empty empty empty 17 7 0 10 -262144 -1
-1;
#X obj 63 28 midiout;
#X obj 63 5 248;
#X connect 0 0 4 4;
#X connect 4 0 2 0;
#X connect 4 0 3 0;
#X connect 4 1 1 0;
#X connect 5 0 4 0;
#X connect 5 0 23 0;
#X connect 6 0 5 3;
#X connect 7 0 5 1;
#X connect 8 0 5 0;
#X connect 9 0 5 2;
#X connect 16 0 17 0;
#X connect 17 0 15 0;
#X connect 18 0 15 0;
#X connect 19 0 18 0;
#X connect 20 0 4 3;
#X connect 21 0 4 1;
#X connect 22 0 4 2;
#X connect 23 0 25 0;
#X connect 25 0 24 0;
#X coords 0 -1 1 1 325 85 1 100 100;
