#N canvas 115 89 642 597 10;
#X obj 142 187 inlet;
#X obj 106 538 outlet;
#X obj 63 538 outlet;
#X text 234 257 divides beat into two main accents (up and down) passes
every other beat out its 3rd outlet;
#X obj 170 539 outlet;
#X obj 92 187 inlet;
#X obj 168 215 inlet;
#X obj 259 103 loadbang;
#X msg 259 142 \$1;
#X obj 68 373 moses;
#X obj 118 361 / 2;
#X obj 85 328 t f f;
#X obj 63 480 t b;
#X obj 106 478 t b;
#X obj 92 269 euclid 2 16 0;
#X obj 258 169 moses 0;
#X obj 85 301 % 16;
#X obj 106 513 f;
#X obj 63 514 f;
#X connect 0 0 10 0;
#X connect 0 0 14 2;
#X connect 0 0 16 1;
#X connect 5 0 14 0;
#X connect 6 0 14 3;
#X connect 7 0 8 0;
#X connect 8 0 15 0;
#X connect 9 0 12 0;
#X connect 9 1 13 0;
#X connect 10 0 9 1;
#X connect 11 0 9 0;
#X connect 11 1 17 1;
#X connect 11 1 18 1;
#X connect 12 0 18 0;
#X connect 13 0 17 0;
#X connect 14 0 16 0;
#X connect 14 1 4 0;
#X connect 15 1 10 0;
#X connect 15 1 14 2;
#X connect 15 1 16 1;
#X connect 16 0 11 0;
#X connect 17 0 1 0;
#X connect 18 0 2 0;
