#N canvas 109 397 500 384 10;
#X obj 25 36 / 127;
#X obj 25 62 sel 0;
#X msg 25 212 0 \$1;
#X obj 23 141 f 1000;
#X obj 110 149 pack 0 5 300 0.5;
#X obj 147 109 unpack 5 300 0.5 1000;
#X msg 110 175 \$1 \$2 \, \$4 \$3;
#X obj 24 13 inlet;
#X obj 147 58 inlet;
#X obj 24 338 outlet~;
#X obj 80 336 outlet;
#X obj 25 236 vline~;
#X obj 10 105 t b 1;
#X obj 52 86 t f 1;
#X obj 92 300 0;
#X obj 24 170 t b f f;
#X obj 92 275 del;
#X obj 104 252 + 55;
#X text 206 272 cyclone/edge~ would be helpful here;
#X connect 0 0 1 0;
#X connect 1 0 12 0;
#X connect 1 1 13 0;
#X connect 2 0 11 0;
#X connect 3 0 15 0;
#X connect 4 0 6 0;
#X connect 5 0 4 1;
#X connect 5 1 4 2;
#X connect 5 2 4 3;
#X connect 5 3 3 1;
#X connect 6 0 11 0;
#X connect 7 0 0 0;
#X connect 8 0 5 0;
#X connect 11 0 9 0;
#X connect 12 0 3 0;
#X connect 13 0 4 0;
#X connect 13 1 10 0;
#X connect 14 0 10 0;
#X connect 15 0 16 0;
#X connect 15 1 2 0;
#X connect 15 2 17 0;
#X connect 16 0 14 0;
#X connect 17 0 16 1;
