#N canvas 798 222 483 436 10;
#X obj 29 165 + 0;
#X obj 22 18 inlet;
#X obj 31 348 outlet;
#X obj 29 188 % \$2;
#X obj 86 284 sel 0;
#X obj 86 313 outlet;
#X obj 68 18 inlet;
#X obj 123 19 inlet;
#X obj 29 76 t b b;
#X obj 177 19 inlet;
#X obj 32 322 + 1;
#X obj 234 20 inlet;
#X msg 138 84 0;
#X obj 144 123 f 0;
#X obj 29 114 f \$3;
#X connect 0 0 3 0;
#X connect 1 0 8 0;
#X connect 3 0 4 0;
#X connect 3 0 10 0;
#X connect 3 0 13 0;
#X connect 4 0 5 0;
#X connect 6 0 10 1;
#X connect 7 0 3 1;
#X connect 8 0 14 0;
#X connect 8 1 13 0;
#X connect 9 0 14 1;
#X connect 10 0 2 0;
#X connect 11 0 12 0;
#X connect 12 0 13 1;
#X connect 13 0 0 1;
#X connect 14 0 0 0;
#X coords 0 436 1 435 85 60 0;
