#N canvas 77 22 1403 835 10;
#X declare -path abstractions;
#X declare -path data;
#X obj 736 -76 tgl 15 0 stst empty start -32 7 0 10 -262144 -1 -1 1
1;
#X floatatom 777 -76 5 0 0 0 bpm - bpm, f 5;
#X obj -7 -69 bng 15 250 50 0 empty empty empty 17 7 0 10 -262144 -1
-1;
#X floatatom 66 -75 5 0 0 0 - - -, f 5;
#X floatatom 99 -75 5 0 0 0 - - -, f 5;
#X floatatom 132 -74 5 0 0 0 - - -, f 5;
#X obj 168 -73 bng 15 250 50 0 empty empty empty 17 7 0 10 -262144
-1 -1;
#X obj 125 -32 bng 15 250 50 0 global_reset empty empty 17 7 0 10 -262144
-1 -1;
#X obj -33 480 makenote 100 100;
#X floatatom 60 459 5 0 0 0 - - -, f 5;
#X obj -34 508 noteout 10;
#X floatatom 13 459 5 0 0 0 - - -, f 5;
#X obj 40 -10 hsl 150 50 0 64 0 0 empty empty empty -2 -8 0 10 -262144
-1 -1 12805 1;
#X obj 737 -121 keyup;
#X obj 737 -97 sel 9;
#X obj 57 -33 s countoff;
#X obj -34 174 r countoff;
#X obj 659 496 makenote 100 100;
#X floatatom 750 471 5 0 0 0 - - -, f 5;
#X floatatom 703 471 5 0 0 0 - - -, f 5;
#X obj 605 576 noteout 1;
#X obj 57 -55 xcounter 1 64 1;
#X obj 659 522 pack;
#X obj 222 -81 dac~;
#X floatatom 1009 481 5 0 0 0 - - -, f 5;
#X floatatom 877 622 5 0 0 0 - - -, f 5;
#X floatatom 910 622 5 0 0 0 - - -, f 5;
#X floatatom 941 622 5 0 0 0 - - -, f 5;
#X obj 985 743 pack 20 20 0.4 50;
#X obj 784 -27 ctlin;
#X obj 704 -32 bendin;
#X obj 710 -12 / 8192;
#X obj -34 -33 midiout;
#X obj -35 -69 248;
#X obj 1128 -98 declare -path abstractions;
#X obj 1128 -77 declare -path data;
#X obj 784 -6 pack 0 0 0;
#X obj 58 -99 bpulse~;
#X msg -34 -109 \; pd dsp \$1;
#X obj -34 -128 tgl 15 0 empty empty empty 17 7 0 10 -262144 -1 -1
1 1;
#X obj 96 -121 bng 15 250 50 0 empty global_reset empty 17 7 0 10 -262144
-1 -1;
#X floatatom 845 -77 5 0 0 0 swing - swing, f 5;
#X obj 660 173 r countoff;
#X obj 777 -124 r bpm;
#X obj 777 -100 prepend set;
#X obj 98 -138 r bpm;
#X obj 57 -138 r stst;
#X obj 664 -96 prepend set;
#X obj 664 -120 r stst;
#X obj 850 -100 prepend set;
#X obj 785 40 route 1 2 3 4 5 6 7 8;
#X obj 857 -27 prepend set;
#X msg 857 -5;
#X obj 932 485 vsl 15 128 0 2000 0 0 empty empty A 0 -9 0 10 -262144
-1 -1 10800 1;
#X obj 951 483 vsl 15 128 0 127 0 0 empty empty D 0 -9 0 10 -262144
-1 -1 11500 1;
#X obj 968 485 vsl 15 128 0 1 0 0 empty empty S 0 -9 0 10 -262144 -1
-1 5500 1;
#X obj 987 485 vsl 15 128 0 2000 0 0 empty empty R 0 -9 0 10 -262144
-1 -1 10200 1;
#X floatatom 974 622 5 0 0 0 - - -, f 5;
#X obj 212 -137 catch~ L;
#X obj 268 -137 catch~ R;
#X obj 276 -58 vsl 15 128 0 127 0 0 empty empty empty 0 -9 0 10 -262144
-1 -1 2300 1;
#X obj 219 -105 *~;
#X obj 276 80 zip~;
#X obj 249 -105 *~;
#X obj 294 -57 vu 15 120 empty empty -1 -8 0 10 -66577 -1 0 0;
#X obj 287 -111 env~;
#X obj 287 -89 - 100;
#X obj 315 -57 vu 15 120 empty empty -1 -8 0 10 -66577 -1 1 0;
#X obj 327 -87 - 100;
#X obj 326 -109 env~;
#X obj 665 210 ebeat-factory mvox;
#X msg 499 170 36 37 44 43 42 48 47 46;
#X msg 1085 88 64 67 71 72 76 78 66 74;
#X floatatom 1010 539 5 0 0 0 - - -, f 5;
#X floatatom 1010 597 5 0 0 0 - - -, f 5;
#X obj 849 -124 r swing;
#X obj 1001 709 t b a;
#X obj 1040 711 t b a;
#X obj 1087 712 t b a;
#X floatatom 885 175 5 0 0 0 - - -, f 5;
#X obj 998 685 f 20;
#X obj 959 704 f 20;
#X obj 773 755 fmsyn~, f 12;
#X obj 1043 684 f 0.4;
#X floatatom 785 137 5 0 0 0 - - -, f 5;
#X floatatom 1010 165 5 0 0 0 - - -, f 5;
#X floatatom 1117 167 5 0 0 0 - - -, f 5;
#X floatatom 1212 175 5 0 0 0 - - -, f 5;
#X obj 1009 498 automator fm_detune;
#X obj 1010 557 automator fm_rat;
#X obj 1010 615 automator fm_mod;
#X obj 224 124 f 1;
#X obj 201 89 bng 15 250 50 0 empty empty empty 17 7 0 10 -262144 -1
-1;
#X obj 756 158 t 0;
#X obj -35 197 ebeat-factory drumkit;
#X obj 1081 683 f 50;
#X obj 810 783 throw~ R;
#X obj 751 784 throw~ L;
#X obj 156 -134 r swing;
#X connect 2 0 33 0;
#X connect 3 0 21 1;
#X connect 4 0 21 2;
#X connect 5 0 21 3;
#X connect 6 0 21 4;
#X connect 8 0 10 0;
#X connect 8 1 10 1;
#X connect 9 0 8 2;
#X connect 11 0 8 1;
#X connect 13 0 14 0;
#X connect 14 0 0 0;
#X connect 16 0 94 0;
#X connect 17 0 22 0;
#X connect 17 1 22 1;
#X connect 18 0 17 2;
#X connect 19 0 17 1;
#X connect 21 0 12 0;
#X connect 21 0 15 0;
#X connect 21 1 7 0;
#X connect 22 0 82 0;
#X connect 24 0 88 0;
#X connect 25 0 81 0;
#X connect 26 0 80 0;
#X connect 27 0 83 0;
#X connect 28 0 82 4;
#X connect 29 0 36 0;
#X connect 29 1 36 1;
#X connect 29 2 36 2;
#X connect 30 0 31 0;
#X connect 33 0 32 0;
#X connect 36 0 51 0;
#X connect 37 0 2 0;
#X connect 37 0 21 0;
#X connect 39 0 38 0;
#X connect 40 0 37 3;
#X connect 42 0 70 0;
#X connect 43 0 44 0;
#X connect 44 0 1 0;
#X connect 45 0 37 1;
#X connect 46 0 37 0;
#X connect 47 0 0 0;
#X connect 48 0 47 0;
#X connect 49 0 41 0;
#X connect 51 0 52 0;
#X connect 53 0 25 0;
#X connect 54 0 26 0;
#X connect 55 0 27 0;
#X connect 56 0 57 0;
#X connect 57 0 95 0;
#X connect 58 0 61 1;
#X connect 59 0 63 1;
#X connect 60 0 62 0;
#X connect 61 0 23 0;
#X connect 61 0 65 0;
#X connect 62 0 61 0;
#X connect 62 0 63 0;
#X connect 63 0 23 1;
#X connect 63 0 69 0;
#X connect 65 0 66 0;
#X connect 66 0 64 0;
#X connect 68 0 67 0;
#X connect 69 0 68 0;
#X connect 70 0 17 0;
#X connect 71 0 94 6;
#X connect 72 0 70 6;
#X connect 73 0 89 0;
#X connect 74 0 90 0;
#X connect 75 0 49 0;
#X connect 76 0 81 0;
#X connect 76 1 28 1;
#X connect 77 0 80 0;
#X connect 77 1 28 2;
#X connect 78 0 83 0;
#X connect 78 1 28 3;
#X connect 79 0 70 2;
#X connect 80 0 76 0;
#X connect 81 0 28 0;
#X connect 82 0 97 0;
#X connect 82 1 96 0;
#X connect 83 0 77 0;
#X connect 84 0 79 0;
#X connect 84 0 85 0;
#X connect 84 0 86 0;
#X connect 84 0 87 0;
#X connect 84 0 93 0;
#X connect 85 0 70 3;
#X connect 86 0 70 4;
#X connect 87 0 70 5;
#X connect 88 0 82 1;
#X connect 89 0 82 2;
#X connect 90 0 82 3;
#X connect 91 0 84 0;
#X connect 91 0 94 1;
#X connect 91 0 94 2;
#X connect 91 0 94 3;
#X connect 91 0 94 4;
#X connect 91 0 94 5;
#X connect 92 0 91 0;
#X connect 93 0 70 1;
#X connect 94 0 8 0;
#X connect 95 0 78 0;
#X connect 98 0 37 2;
