#N canvas 361 277 1403 835 10;
#X declare -path abstractions;
#X declare -path data;
#X obj -24 603 r countoff;
#X obj -31 51 dac~;
#X obj 1200 93 ctlin;
#X obj 1120 88 bendin;
#X obj 1119 108 / 8192;
#X obj 1128 -98 declare -path abstractions;
#X obj 1128 -77 declare -path data;
#X obj 1200 114 pack 0 0 0;
#X obj 1273 93 prepend set;
#X msg 1273 115;
#N canvas 361 29 450 300 mainout 0;
#X obj 104 115 vsl 15 128 0 1.5 0 0 empty empty empty 0 -9 0 10 -262144
-1 -1 0 1;
#X obj 108 20 *~;
#X obj 103 260 zip~;
#X obj 138 20 *~;
#X obj 122 116 vu 15 120 empty empty -1 -8 0 10 -66577 -1 0 0;
#X obj 115 53 env~;
#X obj 115 75 - 100;
#X obj 143 116 vu 15 120 empty empty -1 -8 0 10 -66577 -1 1 0;
#X obj 155 77 - 100;
#X obj 154 55 env~;
#X obj -47 122 expr~ tanh($v1);
#X obj -9 149 expr~ tanh($v1);
#X obj -47 144 outlet~;
#X obj -9 171 outlet~;
#X obj 122 -13 catch~ L;
#X obj 193 -12 catch~ R;
#X connect 0 0 2 0;
#X connect 1 0 5 0;
#X connect 1 0 10 0;
#X connect 2 0 1 0;
#X connect 2 0 3 0;
#X connect 3 0 9 0;
#X connect 3 0 11 0;
#X connect 5 0 6 0;
#X connect 6 0 4 0;
#X connect 8 0 7 0;
#X connect 9 0 8 0;
#X connect 10 0 12 0;
#X connect 11 0 13 0;
#X connect 14 0 1 1;
#X connect 15 0 3 1;
#X coords 0 -1 1 1 100 150 1 100 100;
#X restore -31 -103 pd mainout;
#X obj 1113 -51 loadbang;
#X msg 1112 -26 \; bstart 1 \; blen 64.88 \; bstep 1.05 \; bpm 292.2
\; swing 0.55 \; stst 1 \;;
#X obj 57 -197 pulse_r;
#N canvas 516 196 878 681 event_r 1;
#X obj -28 48 r countoff;
#X obj -28 304 outlet;
#X obj -28 73 event_r eucl3;
#X connect 0 0 2 0;
#X connect 2 0 1 0;
#X restore 104 -86 pd event_r drums;
#N canvas 0 22 450 300 sig_r 0;
#X obj 48 17 inlet;
#X obj 49 227 outlet~;
#X obj 101 227 outlet~;
#X restore 104 -52 pd sig_r drums;
#N canvas 237 161 450 300 effect_r 0;
#X obj 68 54 inlet~;
#X obj 119 55 inlet~;
#X obj 69 227 outlet~;
#X obj 121 227 outlet~;
#X restore 104 -1 pd effect_r drums;
#N canvas 0 22 450 300 mix_r 0;
#X obj 61 69 inlet~;
#X obj 113 71 inlet~;
#X obj 54 243 throw~ L;
#X obj 109 243 throw~ R;
#X restore 104 39 pd mix_r drums;
#N canvas 0 22 450 300 start 0;
#X obj 101 103 tgl 80 0 empty empty empty 17 7 0 10 -262144 -1 -1 0
1;
#X msg 101 200 \; pd dsp \$1 \; stst \$1;
#X connect 0 0 1 0;
#X coords 0 -1 1 1 85 85 2 100 100;
#X restore -30 -197 pd start;
#X connect 2 0 7 0;
#X connect 2 1 7 1;
#X connect 2 2 7 2;
#X connect 3 0 4 0;
#X connect 7 0 8 0;
#X connect 8 0 9 0;
#X connect 10 0 1 0;
#X connect 10 1 1 1;
#X connect 11 0 12 0;
#X connect 14 0 15 0;
#X connect 15 0 16 0;
#X connect 15 1 16 1;
#X connect 16 0 17 0;
#X connect 16 1 17 1;
